<svg xmlns="http://www.w3.org/2000/svg" xmlns:xlink="http://www.w3.org/1999/xlink" viewBox="0,0,256,256" width="64px" height="64px"><defs><linearGradient x1="16" y1="2.888" x2="16" y2="29.012" gradientUnits="userSpaceOnUse" id="color-1"><stop offset="0" stop-color="#ffa500"></stop><stop offset="1" stop-color="#ffa500"></stop></linearGradient><linearGradient x1="16" y1="3" x2="16" y2="29" gradientUnits="userSpaceOnUse" id="color-2"><stop offset="0" stop-color="#000000" stop-opacity="0.02"></stop><stop offset="1" stop-color="#000000" stop-opacity="0.15"></stop></linearGradient><linearGradient x1="16.502" y1="11.26" x2="16.502" y2="20.743" gradientUnits="userSpaceOnUse" id="color-3"><stop offset="0" stop-color="#000000" stop-opacity="0.1"></stop><stop offset="1" stop-color="#000000" stop-opacity="0.7"></stop></linearGradient></defs><g fill="none" fill-rule="nonzero" stroke="none" stroke-width="1" stroke-linecap="butt" stroke-linejoin="miter" stroke-miterlimit="10" stroke-dasharray="" stroke-dashoffset="0" font-family="none" font-weight="none" font-size="none" text-anchor="none" style="mix-blend-mode: normal"><g transform="scale(8,8)"><circle cx="16" cy="16" r="13" fill="url(#color-1)"></circle><path d="M16,3.25c7.03,0 12.75,5.72 12.75,12.75c0,7.03 -5.72,12.75 -12.75,12.75c-7.03,0 -12.75,-5.72 -12.75,-12.75c0,-7.03 5.72,-12.75 12.75,-12.75M16,3c-7.18,0 -13,5.82 -13,13c0,7.18 5.82,13 13,13c7.18,0 13,-5.82 13,-13c0,-7.18 -5.82,-13 -13,-13z" fill="url(#color-2)"></path><g fill="url(#color-3)" opacity="0.2"><path d="M21.929,11.26c-0.35,0 -0.679,0.136 -0.927,0.384l-6.002,6.002l-2.998,-2.998c-0.248,-0.248 -0.577,-0.384 -0.927,-0.384c-0.35,0 -0.679,0.136 -0.927,0.384c-0.248,0.248 -0.384,0.577 -0.384,0.927c0,0.35 0.136,0.679 0.384,0.927l3.809,3.809c0.279,0.279 0.649,0.432 1.043,0.432c0.394,0 0.764,-0.153 1.043,-0.432l6.813,-6.813c0.248,-0.248 0.384,-0.577 0.384,-0.927c0,-0.35 -0.136,-0.679 -0.384,-0.927c-0.248,-0.248 -0.577,-0.384 -0.927,-0.384z"></path></g><path d="M10.325,14.825v0c0.414,-0.414 1.086,-0.414 1.5,0l3.175,3.175l6.179,-6.179c0.414,-0.414 1.086,-0.414 1.5,0v0c0.414,0.414 0.414,1.086 0,1.5l-6.813,6.813c-0.478,0.478 -1.254,0.478 -1.732,0l-3.809,-3.809c-0.414,-0.414 -0.414,-1.086 0,-1.5z" fill="#ffffff"></path></g></g></svg>