<svg width="177" height="25" viewBox="0 0 177 25" fill="none" xmlns="http://www.w3.org/2000/svg">
<path d="M12.8273 24V23.4C13.5073 23.36 14.0173 23.28 14.3573 23.16C14.7173 23.04 14.9573 22.8 15.0773 22.44C15.1973 22.08 15.2573 21.54 15.2573 20.82V5.94C15.2573 5.2 15.1973 4.66 15.0773 4.32C14.9573 3.96 14.7173 3.72 14.3573 3.6C14.0173 3.46 13.5073 3.38 12.8273 3.36V2.76C13.2873 2.78 13.8673 2.8 14.5673 2.82C15.2673 2.84 15.9573 2.85 16.6373 2.85C17.4173 2.85 18.1473 2.84 18.8273 2.82C19.5073 2.8 20.0573 2.78 20.4773 2.76V3.36C19.7973 3.38 19.2773 3.46 18.9173 3.6C18.5773 3.72 18.3473 3.96 18.2273 4.32C18.1073 4.66 18.0473 5.2 18.0473 5.94V20.82C18.0473 21.54 18.1073 22.08 18.2273 22.44C18.3473 22.8 18.5773 23.04 18.9173 23.16C19.2773 23.28 19.7973 23.36 20.4773 23.4V24C20.0573 23.96 19.5073 23.94 18.8273 23.94C18.1473 23.92 17.4173 23.91 16.6373 23.91C15.9573 23.91 15.2673 23.92 14.5673 23.94C13.8673 23.94 13.2873 23.96 12.8273 24ZM0.287344 24V23.4C0.967344 23.36 1.47734 23.28 1.81734 23.16C2.17734 23.04 2.41734 22.8 2.53734 22.44C2.65734 22.08 2.71734 21.54 2.71734 20.82V5.94C2.71734 5.2 2.65734 4.66 2.53734 4.32C2.41734 3.96 2.17734 3.72 1.81734 3.6C1.47734 3.46 0.967344 3.38 0.287344 3.36V2.76C0.707344 2.78 1.25734 2.8 1.93734 2.82C2.61734 2.84 3.34734 2.85 4.12734 2.85C4.82734 2.85 5.51734 2.84 6.19734 2.82C6.89734 2.8 7.47734 2.78 7.93734 2.76V3.36C7.25734 3.38 6.73734 3.46 6.37734 3.6C6.03734 3.72 5.80734 3.96 5.68734 4.32C5.56734 4.66 5.50734 5.2 5.50734 5.94V20.82C5.50734 21.54 5.56734 22.08 5.68734 22.44C5.80734 22.8 6.03734 23.04 6.37734 23.16C6.73734 23.28 7.25734 23.36 7.93734 23.4V24C7.47734 23.96 6.89734 23.94 6.19734 23.94C5.51734 23.92 4.82734 23.91 4.12734 23.91C3.34734 23.91 2.61734 23.92 1.93734 23.94C1.25734 23.94 0.707344 23.96 0.287344 24ZM4.45734 13.62V13.02H16.3073V13.62H4.45734ZM29.4251 8.13C30.7051 8.13 31.8551 8.41 32.8751 8.97C33.8951 9.53 34.7051 10.41 35.3051 11.61C35.9251 12.81 36.2351 14.37 36.2351 16.29C36.2351 18.21 35.9251 19.77 35.3051 20.97C34.7051 22.15 33.8951 23.02 32.8751 23.58C31.8551 24.14 30.7051 24.42 29.4251 24.42C28.1651 24.42 27.0151 24.14 25.9751 23.58C24.9551 23.02 24.1351 22.15 23.5151 20.97C22.9151 19.77 22.6151 18.21 22.6151 16.29C22.6151 14.37 22.9151 12.81 23.5151 11.61C24.1351 10.41 24.9551 9.53 25.9751 8.97C27.0151 8.41 28.1651 8.13 29.4251 8.13ZM29.4251 8.73C28.2851 8.73 27.3451 9.32 26.6051 10.5C25.8851 11.68 25.5251 13.61 25.5251 16.29C25.5251 18.97 25.8851 20.9 26.6051 22.08C27.3451 23.24 28.2851 23.82 29.4251 23.82C30.5651 23.82 31.4951 23.24 32.2151 22.08C32.9551 20.9 33.3251 18.97 33.3251 16.29C33.3251 13.61 32.9551 11.68 32.2151 10.5C31.4951 9.32 30.5651 8.73 29.4251 8.73ZM43.9755 8.55V9.18C43.4755 9.18 43.0355 9.22 42.6555 9.3C42.2755 9.36 42.0255 9.56 41.9055 9.9C41.7855 10.24 41.8755 10.84 42.1755 11.7L45.2955 20.64L45.0855 20.61L49.4955 8.43L50.0955 8.67L44.6055 24.15C44.5255 24.15 44.4455 24.15 44.3655 24.15C44.2855 24.15 44.1955 24.15 44.0955 24.15L39.1755 10.86C38.8555 10.06 38.5355 9.58 38.2155 9.42C37.9155 9.26 37.6555 9.18 37.4355 9.18V8.55C37.8355 8.61 38.2455 8.66 38.6655 8.7C39.1055 8.72 39.5755 8.73 40.0755 8.73C40.6955 8.73 41.3455 8.71 42.0255 8.67C42.7255 8.63 43.3755 8.59 43.9755 8.55ZM60.4455 8.55V9.15C60.0655 9.19 59.7055 9.36 59.3655 9.66C59.0455 9.94 58.7555 10.47 58.4955 11.25L54.1455 24.15C54.0655 24.15 53.9855 24.15 53.9055 24.15C53.8255 24.15 53.7355 24.15 53.6355 24.15L48.8055 11.88L49.4955 8.43C49.6155 8.43 49.7255 8.43 49.8255 8.43C49.9455 8.43 50.0655 8.43 50.1855 8.43L54.8655 20.82L54.6255 21L57.5955 11.97C57.8155 11.29 57.8955 10.76 57.8355 10.38C57.7955 9.98 57.5955 9.69 57.2355 9.51C56.8955 9.31 56.3655 9.19 55.6455 9.15V8.55C56.0055 8.57 56.3155 8.59 56.5755 8.61C56.8355 8.61 57.0855 8.62 57.3255 8.64C57.5855 8.64 57.8655 8.64 58.1655 8.64C58.6255 8.64 59.0355 8.63 59.3955 8.61C59.7755 8.59 60.1255 8.57 60.4455 8.55ZM76.1112 2.76V3.36C75.4312 3.38 74.9112 3.46 74.5512 3.6C74.2112 3.72 73.9812 3.96 73.8612 4.32C73.7412 4.66 73.6812 5.2 73.6812 5.94V20.82C73.6812 21.54 73.7412 22.08 73.8612 22.44C73.9812 22.8 74.2112 23.04 74.5512 23.16C74.9112 23.28 75.4312 23.36 76.1112 23.4V24C75.6512 23.96 75.0712 23.94 74.3712 23.94C73.6912 23.92 73.0012 23.91 72.3012 23.91C71.5212 23.91 70.7912 23.92 70.1112 23.94C69.4312 23.94 68.8812 23.96 68.4612 24V23.4C69.1412 23.36 69.6512 23.28 69.9912 23.16C70.3512 23.04 70.5912 22.8 70.7112 22.44C70.8312 22.08 70.8912 21.54 70.8912 20.82V5.94C70.8912 5.2 70.8312 4.66 70.7112 4.32C70.5912 3.96 70.3512 3.72 69.9912 3.6C69.6512 3.46 69.1412 3.38 68.4612 3.36V2.76C68.8812 2.78 69.4312 2.8 70.1112 2.82C70.7912 2.84 71.5212 2.85 72.3012 2.85C73.0012 2.85 73.6912 2.84 74.3712 2.82C75.0712 2.8 75.6512 2.78 76.1112 2.76ZM82.8914 3.57V8.58H87.3314V9.18H82.8914V20.79C82.8914 21.73 83.0614 22.39 83.4014 22.77C83.7414 23.15 84.2114 23.34 84.8114 23.34C85.4114 23.34 85.9314 23.1 86.3714 22.62C86.8114 22.12 87.1914 21.29 87.5114 20.13L88.1114 20.28C87.9114 21.44 87.5114 22.42 86.9114 23.22C86.3314 24.02 85.4314 24.42 84.2114 24.42C83.5314 24.42 82.9714 24.33 82.5314 24.15C82.0914 23.99 81.7014 23.75 81.3614 23.43C80.9214 22.97 80.6114 22.42 80.4314 21.78C80.2714 21.14 80.1914 20.29 80.1914 19.23V9.18H77.3114V8.58H80.1914V3.99C80.6914 3.97 81.1714 3.93 81.6314 3.87C82.0914 3.81 82.5114 3.71 82.8914 3.57ZM120.983 2.76V3.36C120.603 3.44 120.183 3.67 119.723 4.05C119.263 4.41 118.893 5.05 118.613 5.97L112.943 24.15C112.903 24.15 112.863 24.15 112.823 24.15C112.783 24.15 112.743 24.15 112.703 24.15C112.663 24.15 112.623 24.15 112.583 24.15C112.543 24.15 112.503 24.15 112.463 24.15L106.103 5.28C105.843 4.5 105.553 3.99 105.233 3.75C104.913 3.51 104.613 3.38 104.333 3.36V2.76C104.693 2.78 105.143 2.8 105.683 2.82C106.223 2.84 106.743 2.85 107.243 2.85C108.023 2.85 108.753 2.84 109.433 2.82C110.113 2.8 110.663 2.78 111.083 2.76V3.36C110.483 3.38 110.003 3.44 109.643 3.54C109.303 3.64 109.103 3.86 109.043 4.2C109.003 4.54 109.103 5.1 109.343 5.88L113.813 19.71L113.393 20.07L117.353 7.62C117.713 6.52 117.873 5.67 117.833 5.07C117.813 4.45 117.593 4.02 117.173 3.78C116.753 3.52 116.123 3.38 115.283 3.36V2.76C115.863 2.78 116.453 2.8 117.053 2.82C117.653 2.84 118.213 2.85 118.733 2.85C119.253 2.85 119.683 2.84 120.023 2.82C120.363 2.8 120.683 2.78 120.983 2.76ZM100.013 2.76V3.36C99.4934 3.4 99.1134 3.5 98.8734 3.66C98.6534 3.82 98.5434 4.08 98.5434 4.44C98.5634 4.78 98.6734 5.26 98.8734 5.88L103.523 20.07L102.773 20.82L106.973 7.41L107.423 8.13L102.473 24.15C102.433 24.15 102.393 24.15 102.353 24.15C102.313 24.15 102.273 24.15 102.233 24.15C102.193 24.15 102.153 24.15 102.113 24.15C102.073 24.15 102.033 24.15 101.993 24.15L95.6334 5.28C95.3734 4.5 95.0434 3.99 94.6434 3.75C94.2434 3.51 93.8834 3.38 93.5634 3.36V2.76C93.9634 2.78 94.4534 2.8 95.0334 2.82C95.6334 2.84 96.2134 2.85 96.7734 2.85C97.4334 2.85 98.0434 2.84 98.6034 2.82C99.1834 2.8 99.6534 2.78 100.013 2.76ZM127.072 8.13C128.352 8.13 129.502 8.41 130.522 8.97C131.542 9.53 132.352 10.41 132.952 11.61C133.572 12.81 133.882 14.37 133.882 16.29C133.882 18.21 133.572 19.77 132.952 20.97C132.352 22.15 131.542 23.02 130.522 23.58C129.502 24.14 128.352 24.42 127.072 24.42C125.812 24.42 124.662 24.14 123.622 23.58C122.602 23.02 121.782 22.15 121.162 20.97C120.562 19.77 120.262 18.21 120.262 16.29C120.262 14.37 120.562 12.81 121.162 11.61C121.782 10.41 122.602 9.53 123.622 8.97C124.662 8.41 125.812 8.13 127.072 8.13ZM127.072 8.73C125.932 8.73 124.992 9.32 124.252 10.5C123.532 11.68 123.172 13.61 123.172 16.29C123.172 18.97 123.532 20.9 124.252 22.08C124.992 23.24 125.932 23.82 127.072 23.82C128.212 23.82 129.142 23.24 129.862 22.08C130.602 20.9 130.972 18.97 130.972 16.29C130.972 13.61 130.602 11.68 129.862 10.5C129.142 9.32 128.212 8.73 127.072 8.73ZM145.487 8.13C146.027 8.13 146.497 8.24 146.897 8.46C147.317 8.68 147.637 8.97 147.857 9.33C148.097 9.67 148.217 10.06 148.217 10.5C148.217 11 148.057 11.44 147.737 11.82C147.437 12.2 147.027 12.39 146.507 12.39C146.087 12.39 145.717 12.26 145.397 12C145.077 11.72 144.917 11.33 144.917 10.83C144.917 10.45 145.017 10.13 145.217 9.87C145.437 9.59 145.677 9.37 145.937 9.21C145.797 9.01 145.587 8.91 145.307 8.91C144.687 8.91 144.117 9.1 143.597 9.48C143.077 9.84 142.637 10.31 142.277 10.89C141.917 11.47 141.637 12.09 141.437 12.75C141.237 13.39 141.137 13.99 141.137 14.55V20.91C141.137 21.89 141.417 22.55 141.977 22.89C142.557 23.21 143.337 23.37 144.317 23.37V24C143.857 23.98 143.207 23.96 142.367 23.94C141.527 23.9 140.637 23.88 139.697 23.88C139.017 23.88 138.337 23.9 137.657 23.94C136.997 23.96 136.497 23.98 136.157 24V23.37C136.977 23.37 137.557 23.22 137.897 22.92C138.257 22.62 138.437 22.05 138.437 21.21V11.82C138.437 10.92 138.277 10.26 137.957 9.84C137.637 9.4 137.037 9.18 136.157 9.18V8.55C136.797 8.61 137.417 8.64 138.017 8.64C138.597 8.64 139.147 8.61 139.667 8.55C140.207 8.47 140.697 8.36 141.137 8.22V11.97C141.357 11.39 141.667 10.81 142.067 10.23C142.487 9.63 142.987 9.13 143.567 8.73C144.147 8.33 144.787 8.13 145.487 8.13ZM153.641 0.479999V21.21C153.641 22.05 153.791 22.62 154.091 22.92C154.391 23.22 154.901 23.37 155.621 23.37V24C155.301 23.98 154.821 23.96 154.181 23.94C153.561 23.9 152.931 23.88 152.291 23.88C151.611 23.88 150.921 23.9 150.221 23.94C149.521 23.96 149.001 23.98 148.661 24V23.37C149.481 23.37 150.061 23.22 150.401 22.92C150.761 22.62 150.941 22.05 150.941 21.21V4.08C150.941 3.18 150.781 2.52 150.461 2.1C150.141 1.66 149.541 1.44 148.661 1.44V0.809998C149.301 0.869999 149.921 0.899999 150.521 0.899999C151.101 0.899999 151.651 0.869999 152.171 0.809998C152.711 0.729999 153.201 0.619999 153.641 0.479999ZM163.181 8.55V9.15C162.681 9.19 162.211 9.33 161.771 9.57C161.331 9.79 160.901 10.12 160.481 10.56L156.251 15L156.671 14.16L162.251 21.81C162.591 22.27 162.911 22.63 163.211 22.89C163.531 23.15 163.911 23.31 164.351 23.37V24C164.131 23.98 163.781 23.96 163.301 23.94C162.841 23.9 162.381 23.88 161.921 23.88C161.301 23.88 160.671 23.9 160.031 23.94C159.391 23.96 158.911 23.98 158.591 24V23.37C158.991 23.37 159.271 23.27 159.431 23.07C159.591 22.87 159.561 22.63 159.341 22.35L155.891 17.31C155.511 16.77 155.161 16.42 154.841 16.26C154.541 16.1 154.101 16.01 153.521 15.99V15.39C154.161 15.31 154.681 15.18 155.081 15C155.481 14.8 155.861 14.51 156.221 14.13L158.441 11.82C159.081 11.16 159.401 10.64 159.401 10.26C159.401 9.86 159.191 9.58 158.771 9.42C158.371 9.24 157.841 9.15 157.181 9.15V8.55C157.701 8.57 158.281 8.6 158.921 8.64C159.581 8.66 160.131 8.67 160.571 8.67C160.911 8.67 161.241 8.67 161.561 8.67C161.881 8.65 162.181 8.63 162.461 8.61C162.741 8.59 162.981 8.57 163.181 8.55ZM170.795 8.13C171.595 8.13 172.275 8.26 172.835 8.52C173.395 8.78 173.805 9.02 174.065 9.24C174.725 9.78 175.125 9.42 175.265 8.16H175.955C175.915 8.72 175.885 9.39 175.865 10.17C175.845 10.93 175.835 11.96 175.835 13.26H175.145C175.025 12.52 174.815 11.8 174.515 11.1C174.235 10.4 173.815 9.83 173.255 9.39C172.695 8.93 171.965 8.7 171.065 8.7C170.365 8.7 169.775 8.9 169.295 9.3C168.835 9.68 168.605 10.25 168.605 11.01C168.605 11.61 168.785 12.13 169.145 12.57C169.505 12.99 169.975 13.39 170.555 13.77C171.135 14.13 171.765 14.53 172.445 14.97C173.205 15.45 173.895 15.94 174.515 16.44C175.135 16.94 175.625 17.49 175.985 18.09C176.365 18.69 176.555 19.4 176.555 20.22C176.555 21.14 176.315 21.91 175.835 22.53C175.355 23.15 174.725 23.62 173.945 23.94C173.185 24.26 172.345 24.42 171.425 24.42C170.985 24.42 170.565 24.38 170.165 24.3C169.785 24.24 169.415 24.14 169.055 24C168.855 23.9 168.645 23.78 168.425 23.64C168.225 23.5 168.025 23.35 167.825 23.19C167.625 23.03 167.445 23.04 167.285 23.22C167.125 23.38 167.005 23.71 166.925 24.21H166.235C166.275 23.57 166.305 22.79 166.325 21.87C166.345 20.95 166.355 19.73 166.355 18.21H167.045C167.185 19.33 167.385 20.31 167.645 21.15C167.905 21.99 168.315 22.65 168.875 23.13C169.435 23.59 170.215 23.82 171.215 23.82C171.615 23.82 172.015 23.73 172.415 23.55C172.835 23.37 173.185 23.07 173.465 22.65C173.745 22.23 173.885 21.67 173.885 20.97C173.885 20.09 173.565 19.37 172.925 18.81C172.285 18.25 171.475 17.66 170.495 17.04C169.775 16.58 169.095 16.12 168.455 15.66C167.835 15.2 167.325 14.68 166.925 14.1C166.545 13.52 166.355 12.82 166.355 12C166.355 11.1 166.555 10.37 166.955 9.81C167.375 9.23 167.925 8.81 168.605 8.55C169.285 8.27 170.015 8.13 170.795 8.13Z" fill="#32CD32"/>
</svg>
