<svg width="156" height="30" viewBox="0 0 156 30" fill="none" xmlns="http://www.w3.org/2000/svg">
<path d="M0.727774 2.76C1.14777 2.78 1.69777 2.8 2.37777 2.82C3.05777 2.84 3.72777 2.85 4.38777 2.85C5.32777 2.85 6.22777 2.84 7.08777 2.82C7.94777 2.8 8.55777 2.79 8.91777 2.79C11.3378 2.79 13.1478 3.34 14.3478 4.44C15.5478 5.54 16.1478 6.96 16.1478 8.7C16.1478 9.42 16.0278 10.18 15.7878 10.98C15.5478 11.76 15.1278 12.49 14.5278 13.17C13.9478 13.83 13.1478 14.37 12.1278 14.79C11.1078 15.21 9.81777 15.42 8.25777 15.42H5.37777V14.82H7.95777C9.37777 14.82 10.4578 14.55 11.1978 14.01C11.9578 13.47 12.4678 12.76 12.7278 11.88C13.0078 11 13.1478 10.05 13.1478 9.03C13.1478 7.13 12.7678 5.71 12.0078 4.77C11.2678 3.83 9.98777 3.36 8.16777 3.36C7.24777 3.36 6.64777 3.53 6.36777 3.87C6.08777 4.21 5.94777 4.9 5.94777 5.94V20.82C5.94777 21.54 6.01777 22.08 6.15777 22.44C6.31777 22.8 6.61777 23.04 7.05777 23.16C7.49777 23.28 8.13777 23.36 8.97777 23.4V24C8.45777 23.96 7.79777 23.94 6.99777 23.94C6.19777 23.92 5.38777 23.91 4.56777 23.91C3.78777 23.91 3.05777 23.92 2.37777 23.94C1.69777 23.94 1.14777 23.96 0.727774 24V23.4C1.40777 23.36 1.91777 23.28 2.25777 23.16C2.61777 23.04 2.85777 22.8 2.97777 22.44C3.09777 22.08 3.15777 21.54 3.15777 20.82V5.94C3.15777 5.2 3.09777 4.66 2.97777 4.32C2.85777 3.96 2.61777 3.72 2.25777 3.6C1.91777 3.46 1.40777 3.38 0.727774 3.36V2.76ZM24.9143 8.13C26.1943 8.13 27.3443 8.41 28.3643 8.97C29.3843 9.53 30.1943 10.41 30.7943 11.61C31.4143 12.81 31.7243 14.37 31.7243 16.29C31.7243 18.21 31.4143 19.77 30.7943 20.97C30.1943 22.15 29.3843 23.02 28.3643 23.58C27.3443 24.14 26.1943 24.42 24.9143 24.42C23.6543 24.42 22.5043 24.14 21.4643 23.58C20.4443 23.02 19.6243 22.15 19.0043 20.97C18.4043 19.77 18.1043 18.21 18.1043 16.29C18.1043 14.37 18.4043 12.81 19.0043 11.61C19.6243 10.41 20.4443 9.53 21.4643 8.97C22.5043 8.41 23.6543 8.13 24.9143 8.13ZM24.9143 8.73C23.7743 8.73 22.8343 9.32 22.0943 10.5C21.3743 11.68 21.0143 13.61 21.0143 16.29C21.0143 18.97 21.3743 20.9 22.0943 22.08C22.8343 23.24 23.7743 23.82 24.9143 23.82C26.0543 23.82 26.9843 23.24 27.7043 22.08C28.4443 20.9 28.8143 18.97 28.8143 16.29C28.8143 13.61 28.4443 11.68 27.7043 10.5C26.9843 9.32 26.0543 8.73 24.9143 8.73ZM39.4648 8.55V9.18C38.9648 9.18 38.5248 9.22 38.1448 9.3C37.7648 9.36 37.5148 9.56 37.3948 9.9C37.2748 10.24 37.3648 10.84 37.6648 11.7L40.7848 20.64L40.5748 20.61L44.9848 8.43L45.5848 8.67L40.0948 24.15C40.0148 24.15 39.9348 24.15 39.8548 24.15C39.7748 24.15 39.6848 24.15 39.5848 24.15L34.6648 10.86C34.3448 10.06 34.0248 9.58 33.7048 9.42C33.4048 9.26 33.1448 9.18 32.9248 9.18V8.55C33.3248 8.61 33.7348 8.66 34.1548 8.7C34.5948 8.72 35.0648 8.73 35.5648 8.73C36.1848 8.73 36.8348 8.71 37.5148 8.67C38.2148 8.63 38.8648 8.59 39.4648 8.55ZM55.9348 8.55V9.15C55.5548 9.19 55.1948 9.36 54.8548 9.66C54.5348 9.94 54.2448 10.47 53.9848 11.25L49.6348 24.15C49.5548 24.15 49.4748 24.15 49.3948 24.15C49.3148 24.15 49.2248 24.15 49.1248 24.15L44.2948 11.88L44.9848 8.43C45.1048 8.43 45.2148 8.43 45.3148 8.43C45.4348 8.43 45.5548 8.43 45.6748 8.43L50.3548 20.82L50.1148 21L53.0848 11.97C53.3048 11.29 53.3848 10.76 53.3248 10.38C53.2848 9.98 53.0848 9.69 52.7248 9.51C52.3848 9.31 51.8548 9.19 51.1348 9.15V8.55C51.4948 8.57 51.8048 8.59 52.0648 8.61C52.3248 8.61 52.5748 8.62 52.8148 8.64C53.0748 8.64 53.3548 8.64 53.6548 8.64C54.1148 8.64 54.5248 8.63 54.8848 8.61C55.2648 8.59 55.6148 8.57 55.9348 8.55ZM63.9071 8.13C65.6671 8.13 67.0371 8.67 68.0171 9.75C69.0171 10.81 69.5171 12.47 69.5171 14.73H58.9271L58.8971 14.16H66.6371C66.6771 13.18 66.5971 12.28 66.3971 11.46C66.1971 10.62 65.8771 9.95 65.4371 9.45C65.0171 8.95 64.4671 8.7 63.7871 8.7C62.8671 8.7 62.0471 9.16 61.3271 10.08C60.6271 11 60.2071 12.46 60.0671 14.46L60.1571 14.58C60.1171 14.88 60.0871 15.21 60.0671 15.57C60.0471 15.93 60.0371 16.29 60.0371 16.65C60.0371 18.01 60.2571 19.18 60.6971 20.16C61.1371 21.14 61.7071 21.89 62.4071 22.41C63.1271 22.91 63.8671 23.16 64.6271 23.16C65.2271 23.16 65.7971 23.07 66.3371 22.89C66.8771 22.69 67.3771 22.37 67.8371 21.93C68.2971 21.49 68.6971 20.9 69.0371 20.16L69.6371 20.4C69.4171 21.06 69.0571 21.7 68.5571 22.32C68.0571 22.94 67.4271 23.45 66.6671 23.85C65.9071 24.23 65.0271 24.42 64.0271 24.42C62.5871 24.42 61.3471 24.09 60.3071 23.43C59.2871 22.77 58.4971 21.86 57.9371 20.7C57.3971 19.52 57.1271 18.17 57.1271 16.65C57.1271 14.89 57.4071 13.38 57.9671 12.12C58.5271 10.84 59.3171 9.86 60.3371 9.18C61.3571 8.48 62.5471 8.13 63.9071 8.13ZM81.1229 8.13C81.6629 8.13 82.1329 8.24 82.5329 8.46C82.9529 8.68 83.2729 8.97 83.4929 9.33C83.7329 9.67 83.8529 10.06 83.8529 10.5C83.8529 11 83.6929 11.44 83.3729 11.82C83.0729 12.2 82.6629 12.39 82.1429 12.39C81.7229 12.39 81.3529 12.26 81.0329 12C80.7129 11.72 80.5529 11.33 80.5529 10.83C80.5529 10.45 80.6529 10.13 80.8529 9.87C81.0729 9.59 81.3129 9.37 81.5729 9.21C81.4329 9.01 81.2229 8.91 80.9429 8.91C80.3229 8.91 79.7529 9.1 79.2329 9.48C78.7129 9.84 78.2729 10.31 77.9129 10.89C77.5529 11.47 77.2729 12.09 77.0729 12.75C76.8729 13.39 76.7729 13.99 76.7729 14.55V20.91C76.7729 21.89 77.0529 22.55 77.6129 22.89C78.1929 23.21 78.9729 23.37 79.9529 23.37V24C79.4929 23.98 78.8429 23.96 78.0029 23.94C77.1629 23.9 76.2729 23.88 75.3329 23.88C74.6529 23.88 73.9729 23.9 73.2929 23.94C72.6329 23.96 72.1329 23.98 71.7929 24V23.37C72.6129 23.37 73.1929 23.22 73.5329 22.92C73.8929 22.62 74.0729 22.05 74.0729 21.21V11.82C74.0729 10.92 73.9129 10.26 73.5929 9.84C73.2729 9.4 72.6729 9.18 71.7929 9.18V8.55C72.4329 8.61 73.0529 8.64 73.6529 8.64C74.2329 8.64 74.7829 8.61 75.3029 8.55C75.8429 8.47 76.3329 8.36 76.7729 8.22V11.97C76.9929 11.39 77.3029 10.81 77.7029 10.23C78.1229 9.63 78.6229 9.13 79.2029 8.73C79.7829 8.33 80.4229 8.13 81.1229 8.13ZM91.8563 8.13C93.6163 8.13 94.9863 8.67 95.9663 9.75C96.9663 10.81 97.4663 12.47 97.4663 14.73H86.8763L86.8463 14.16H94.5863C94.6263 13.18 94.5463 12.28 94.3463 11.46C94.1463 10.62 93.8263 9.95 93.3863 9.45C92.9663 8.95 92.4163 8.7 91.7363 8.7C90.8163 8.7 89.9963 9.16 89.2763 10.08C88.5763 11 88.1563 12.46 88.0163 14.46L88.1063 14.58C88.0663 14.88 88.0363 15.21 88.0163 15.57C87.9963 15.93 87.9863 16.29 87.9863 16.65C87.9863 18.01 88.2063 19.18 88.6463 20.16C89.0863 21.14 89.6563 21.89 90.3563 22.41C91.0763 22.91 91.8163 23.16 92.5763 23.16C93.1763 23.16 93.7463 23.07 94.2863 22.89C94.8263 22.69 95.3263 22.37 95.7863 21.93C96.2463 21.49 96.6463 20.9 96.9863 20.16L97.5863 20.4C97.3663 21.06 97.0063 21.7 96.5063 22.32C96.0063 22.94 95.3763 23.45 94.6163 23.85C93.8563 24.23 92.9763 24.42 91.9763 24.42C90.5363 24.42 89.2963 24.09 88.2563 23.43C87.2363 22.77 86.4463 21.86 85.8863 20.7C85.3463 19.52 85.0763 18.17 85.0763 16.65C85.0763 14.89 85.3563 13.38 85.9163 12.12C86.4763 10.84 87.2663 9.86 88.2863 9.18C89.3063 8.48 90.4963 8.13 91.8563 8.13ZM113.392 0.479999V20.73C113.392 21.63 113.552 22.3 113.872 22.74C114.212 23.16 114.812 23.37 115.672 23.37V24C115.052 23.94 114.432 23.91 113.812 23.91C113.232 23.91 112.672 23.94 112.132 24C111.612 24.06 111.132 24.17 110.692 24.33V4.08C110.692 3.18 110.532 2.52 110.212 2.1C109.892 1.66 109.292 1.44 108.412 1.44V0.809998C109.052 0.869999 109.672 0.899999 110.272 0.899999C110.852 0.899999 111.402 0.869999 111.922 0.809998C112.462 0.729999 112.952 0.619999 113.392 0.479999ZM107.092 8.13C107.972 8.13 108.792 8.34 109.552 8.76C110.332 9.18 110.852 9.9 111.112 10.92L110.722 11.22C110.442 10.38 110.002 9.77 109.402 9.39C108.822 9.01 108.132 8.82 107.332 8.82C106.152 8.82 105.162 9.43 104.362 10.65C103.582 11.87 103.202 13.75 103.222 16.29C103.222 17.91 103.372 19.26 103.672 20.34C103.992 21.4 104.452 22.2 105.052 22.74C105.672 23.26 106.422 23.52 107.302 23.52C108.142 23.52 108.902 23.16 109.582 22.44C110.262 21.72 110.672 20.66 110.812 19.26L111.172 19.68C111.012 21.2 110.522 22.37 109.702 23.19C108.902 24.01 107.812 24.42 106.432 24.42C105.192 24.42 104.102 24.12 103.162 23.52C102.242 22.92 101.532 22.02 101.032 20.82C100.552 19.62 100.312 18.11 100.312 16.29C100.312 14.47 100.622 12.96 101.242 11.76C101.882 10.54 102.712 9.63 103.732 9.03C104.772 8.43 105.892 8.13 107.092 8.13ZM133.554 8.13C135.194 8.13 136.554 8.81 137.634 10.17C138.714 11.51 139.254 13.55 139.254 16.29C139.254 18.09 138.944 19.6 138.324 20.82C137.724 22.02 136.914 22.92 135.894 23.52C134.874 24.12 133.764 24.42 132.564 24.42C131.564 24.42 130.594 24.14 129.654 23.58C128.734 23 128.044 22.15 127.584 21.03L128.184 21.36C128.684 22.16 129.304 22.76 130.044 23.16C130.784 23.54 131.544 23.73 132.324 23.73C133.664 23.73 134.664 23.13 135.324 21.93C136.004 20.71 136.344 18.83 136.344 16.29C136.344 14.67 136.214 13.32 135.954 12.24C135.694 11.16 135.294 10.36 134.754 9.84C134.214 9.3 133.524 9.03 132.684 9.03C131.764 9.03 130.904 9.45 130.104 10.29C129.324 11.11 128.844 12.32 128.664 13.92L128.304 13.5C128.524 11.8 129.114 10.48 130.074 9.54C131.054 8.6 132.214 8.13 133.554 8.13ZM128.874 0.509998V22.44C128.614 22.66 128.344 22.89 128.064 23.13C127.804 23.35 127.544 23.57 127.284 23.79C127.024 24.01 126.754 24.24 126.474 24.48L125.964 24.27C126.044 23.99 126.094 23.71 126.114 23.43C126.154 23.13 126.174 22.83 126.174 22.53V4.11C126.174 3.21 126.014 2.55 125.694 2.13C125.374 1.69 124.774 1.47 123.894 1.47V0.84C124.534 0.899999 125.154 0.929998 125.754 0.929998C126.334 0.929998 126.884 0.899999 127.404 0.84C127.944 0.759999 128.434 0.649999 128.874 0.509998ZM155.235 8.55V9.15C154.855 9.19 154.505 9.36 154.185 9.66C153.865 9.96 153.565 10.49 153.285 11.25L148.365 24.15H147.855L142.335 10.86C141.955 10.08 141.575 9.61 141.195 9.45C140.835 9.27 140.535 9.18 140.295 9.18V8.55C140.735 8.61 141.195 8.66 141.675 8.7C142.155 8.72 142.675 8.73 143.235 8.73C143.855 8.73 144.505 8.71 145.185 8.67C145.885 8.63 146.535 8.59 147.135 8.55V9.18C146.635 9.18 146.185 9.22 145.785 9.3C145.405 9.36 145.165 9.57 145.065 9.93C144.965 10.27 145.085 10.86 145.425 11.7L149.115 20.85L148.935 20.91L152.355 11.97C152.615 11.31 152.715 10.79 152.655 10.41C152.615 10.01 152.415 9.71 152.055 9.51C151.695 9.31 151.155 9.19 150.435 9.15V8.55C150.795 8.57 151.105 8.59 151.365 8.61C151.625 8.61 151.875 8.62 152.115 8.64C152.375 8.64 152.655 8.64 152.955 8.64C153.415 8.64 153.825 8.63 154.185 8.61C154.565 8.59 154.915 8.57 155.235 8.55ZM148.365 24.15L147.345 26.76C147.145 27.26 146.935 27.68 146.715 28.02C146.515 28.36 146.295 28.64 146.055 28.86C145.735 29.16 145.355 29.36 144.915 29.46C144.475 29.58 144.075 29.64 143.715 29.64C143.335 29.64 142.985 29.57 142.665 29.43C142.365 29.29 142.125 29.08 141.945 28.8C141.765 28.54 141.675 28.22 141.675 27.84C141.675 27.36 141.815 26.97 142.095 26.67C142.375 26.39 142.765 26.25 143.265 26.25C143.685 26.25 144.045 26.37 144.345 26.61C144.645 26.85 144.795 27.2 144.795 27.66C144.795 28 144.715 28.28 144.555 28.5C144.395 28.72 144.205 28.89 143.985 29.01C144.025 29.03 144.055 29.04 144.075 29.04C144.115 29.04 144.145 29.04 144.165 29.04C144.705 29.04 145.185 28.85 145.605 28.47C146.025 28.11 146.395 27.52 146.715 26.7L147.795 23.91L148.365 24.15Z" fill="#32CD32"/>
</svg>
