<svg width="253" height="113" viewBox="0 0 253 113" fill="none" xmlns="http://www.w3.org/2000/svg">
<path d="M44.5704 8.34C46.4704 8.34 48.1304 8.77 49.5504 9.63C50.9904 10.49 52.1004 11.73 52.8804 13.35C53.6804 14.95 54.0804 16.9 54.0804 19.2C54.0804 21.44 53.6704 23.4 52.8504 25.08C52.0504 26.76 50.9304 28.07 49.4904 29.01C48.0504 29.95 46.4004 30.42 44.5404 30.42C42.6404 30.42 40.9704 29.99 39.5304 29.13C38.1104 28.27 37.0004 27.03 36.2004 25.41C35.4204 23.79 35.0304 21.84 35.0304 19.56C35.0304 17.32 35.4404 15.36 36.2604 13.68C37.0804 12 38.2004 10.69 39.6204 9.75C41.0604 8.81 42.7104 8.34 44.5704 8.34ZM44.4504 8.88C43.1504 8.88 42.0204 9.33 41.0604 10.23C40.1004 11.13 39.3504 12.37 38.8104 13.95C38.2904 15.53 38.0304 17.36 38.0304 19.44C38.0304 21.56 38.3204 23.41 38.9004 24.99C39.5004 26.55 40.3004 27.76 41.3004 28.62C42.3204 29.46 43.4404 29.88 44.6604 29.88C45.9604 29.88 47.0904 29.43 48.0504 28.53C49.0104 27.63 49.7504 26.39 50.2704 24.81C50.8104 23.21 51.0804 21.38 51.0804 19.32C51.0804 17.18 50.7804 15.33 50.1804 13.77C49.6004 12.21 48.8104 11.01 47.8104 10.17C46.8104 9.31 45.6904 8.88 44.4504 8.88ZM70.1668 14.22V26.76C70.1668 27.66 70.3268 28.33 70.6468 28.77C70.9868 29.19 71.5868 29.4 72.4468 29.4V30.03C71.8268 29.97 71.2068 29.94 70.5868 29.94C70.0068 29.94 69.4468 29.97 68.9068 30.03C68.3868 30.09 67.9068 30.2 67.4668 30.36V26.82C66.9668 28.12 66.2568 29.05 65.3368 29.61C64.4368 30.15 63.5068 30.42 62.5468 30.42C61.8468 30.42 61.2368 30.32 60.7168 30.12C60.1968 29.92 59.7668 29.64 59.4268 29.28C59.0468 28.88 58.7868 28.36 58.6468 27.72C58.5068 27.08 58.4368 26.29 58.4368 25.35V17.82C58.4368 16.92 58.2768 16.26 57.9568 15.84C57.6368 15.4 57.0368 15.18 56.1568 15.18V14.55C56.7968 14.61 57.4168 14.64 58.0168 14.64C58.5968 14.64 59.1468 14.61 59.6668 14.55C60.2068 14.47 60.6968 14.36 61.1368 14.22V26.01C61.1368 26.63 61.1768 27.2 61.2568 27.72C61.3368 28.24 61.5368 28.66 61.8568 28.98C62.1768 29.3 62.6968 29.46 63.4168 29.46C64.1968 29.46 64.8868 29.22 65.4868 28.74C66.1068 28.26 66.5868 27.61 66.9268 26.79C67.2868 25.97 67.4668 25.05 67.4668 24.03V17.82C67.4668 16.92 67.3068 16.26 66.9868 15.84C66.6668 15.4 66.0668 15.18 65.1868 15.18V14.55C65.8268 14.61 66.4468 14.64 67.0468 14.64C67.6268 14.64 68.1768 14.61 68.6968 14.55C69.2368 14.47 69.7268 14.36 70.1668 14.22ZM83.3084 14.13C83.8484 14.13 84.3184 14.24 84.7184 14.46C85.1384 14.68 85.4584 14.97 85.6784 15.33C85.9184 15.67 86.0384 16.06 86.0384 16.5C86.0384 17 85.8784 17.44 85.5584 17.82C85.2584 18.2 84.8484 18.39 84.3284 18.39C83.9084 18.39 83.5384 18.26 83.2184 18C82.8984 17.72 82.7384 17.33 82.7384 16.83C82.7384 16.45 82.8384 16.13 83.0384 15.87C83.2584 15.59 83.4984 15.37 83.7584 15.21C83.6184 15.01 83.4084 14.91 83.1284 14.91C82.5084 14.91 81.9384 15.1 81.4184 15.48C80.8984 15.84 80.4584 16.31 80.0984 16.89C79.7384 17.47 79.4584 18.09 79.2584 18.75C79.0584 19.39 78.9584 19.99 78.9584 20.55V26.91C78.9584 27.89 79.2384 28.55 79.7984 28.89C80.3784 29.21 81.1584 29.37 82.1384 29.37V30C81.6784 29.98 81.0284 29.96 80.1884 29.94C79.3484 29.9 78.4584 29.88 77.5184 29.88C76.8384 29.88 76.1584 29.9 75.4784 29.94C74.8184 29.96 74.3184 29.98 73.9784 30V29.37C74.7984 29.37 75.3784 29.22 75.7184 28.92C76.0784 28.62 76.2584 28.05 76.2584 27.21V17.82C76.2584 16.92 76.0984 16.26 75.7784 15.84C75.4584 15.4 74.8584 15.18 73.9784 15.18V14.55C74.6184 14.61 75.2384 14.64 75.8384 14.64C76.4184 14.64 76.9684 14.61 77.4884 14.55C78.0284 14.47 78.5184 14.36 78.9584 14.22V17.97C79.1784 17.39 79.4884 16.81 79.8884 16.23C80.3084 15.63 80.8084 15.13 81.3884 14.73C81.9684 14.33 82.6084 14.13 83.3084 14.13ZM94.5539 8.76C94.9739 8.78 95.5239 8.8 96.2039 8.82C96.8839 8.84 97.5539 8.85 98.2139 8.85C99.1539 8.85 100.054 8.84 100.914 8.82C101.774 8.8 102.384 8.79 102.744 8.79C104.364 8.79 105.704 9.02 106.764 9.48C107.844 9.94 108.644 10.57 109.164 11.37C109.704 12.15 109.974 13.03 109.974 14.01C109.974 14.61 109.854 15.25 109.614 15.93C109.374 16.61 108.954 17.25 108.354 17.85C107.774 18.45 106.974 18.95 105.954 19.35C104.934 19.73 103.644 19.92 102.084 19.92H99.2039V19.32H101.784C103.204 19.32 104.284 19.1 105.024 18.66C105.784 18.2 106.294 17.6 106.554 16.86C106.834 16.1 106.974 15.26 106.974 14.34C106.974 12.76 106.594 11.54 105.834 10.68C105.094 9.8 103.814 9.36 101.994 9.36C101.074 9.36 100.474 9.53 100.194 9.87C99.9139 10.21 99.7739 10.9 99.7739 11.94V26.82C99.7739 27.54 99.8339 28.08 99.9539 28.44C100.074 28.8 100.304 29.04 100.644 29.16C101.004 29.28 101.524 29.36 102.204 29.4V30C101.744 29.96 101.164 29.94 100.464 29.94C99.7839 29.92 99.0939 29.91 98.3939 29.91C97.6139 29.91 96.8839 29.92 96.2039 29.94C95.5239 29.94 94.9739 29.96 94.5539 30V29.4C95.2339 29.36 95.7439 29.28 96.0839 29.16C96.4439 29.04 96.6839 28.8 96.8039 28.44C96.9239 28.08 96.9839 27.54 96.9839 26.82V11.94C96.9839 11.2 96.9239 10.66 96.8039 10.32C96.6839 9.96 96.4439 9.72 96.0839 9.6C95.7439 9.46 95.2339 9.38 94.5539 9.36V8.76ZM99.3239 19.41C100.404 19.45 101.254 19.5 101.874 19.56C102.494 19.6 102.994 19.64 103.374 19.68C103.774 19.72 104.154 19.77 104.514 19.83C105.854 20.05 106.814 20.46 107.394 21.06C107.994 21.64 108.434 22.55 108.714 23.79L109.464 26.85C109.664 27.73 109.864 28.37 110.064 28.77C110.284 29.15 110.614 29.33 111.054 29.31C111.394 29.29 111.674 29.18 111.894 28.98C112.134 28.78 112.384 28.51 112.644 28.17L113.094 28.5C112.674 29.12 112.234 29.6 111.774 29.94C111.334 30.26 110.704 30.42 109.884 30.42C109.144 30.42 108.494 30.2 107.934 29.76C107.374 29.32 106.954 28.46 106.674 27.18L106.014 24.18C105.834 23.32 105.624 22.58 105.384 21.96C105.164 21.32 104.844 20.82 104.424 20.46C104.024 20.1 103.424 19.92 102.624 19.92H99.3839L99.3239 19.41ZM120.967 14.13C122.247 14.13 123.397 14.41 124.417 14.97C125.437 15.53 126.247 16.41 126.847 17.61C127.467 18.81 127.777 20.37 127.777 22.29C127.777 24.21 127.467 25.77 126.847 26.97C126.247 28.15 125.437 29.02 124.417 29.58C123.397 30.14 122.247 30.42 120.967 30.42C119.707 30.42 118.557 30.14 117.517 29.58C116.497 29.02 115.677 28.15 115.057 26.97C114.457 25.77 114.157 24.21 114.157 22.29C114.157 20.37 114.457 18.81 115.057 17.61C115.677 16.41 116.497 15.53 117.517 14.97C118.557 14.41 119.707 14.13 120.967 14.13ZM120.967 14.73C119.827 14.73 118.887 15.32 118.147 16.5C117.427 17.68 117.067 19.61 117.067 22.29C117.067 24.97 117.427 26.9 118.147 28.08C118.887 29.24 119.827 29.82 120.967 29.82C122.107 29.82 123.037 29.24 123.757 28.08C124.497 26.9 124.867 24.97 124.867 22.29C124.867 19.61 124.497 17.68 123.757 16.5C123.037 15.32 122.107 14.73 120.967 14.73ZM134.313 30.21C133.493 30.21 132.783 30.06 132.183 29.76C131.583 29.44 131.123 29 130.803 28.44C130.503 27.88 130.353 27.23 130.353 26.49C130.353 25.61 130.553 24.89 130.953 24.33C131.373 23.77 131.903 23.32 132.543 22.98C133.183 22.64 133.853 22.36 134.553 22.14C135.273 21.9 135.953 21.68 136.593 21.48C137.233 21.26 137.753 21.01 138.153 20.73C138.573 20.45 138.783 20.08 138.783 19.62V17.76C138.783 16.92 138.653 16.28 138.393 15.84C138.153 15.4 137.823 15.11 137.403 14.97C136.983 14.81 136.513 14.73 135.993 14.73C135.493 14.73 134.953 14.8 134.373 14.94C133.813 15.08 133.363 15.37 133.023 15.81C133.403 15.89 133.733 16.09 134.013 16.41C134.293 16.73 134.433 17.14 134.433 17.64C134.433 18.14 134.273 18.54 133.953 18.84C133.633 19.12 133.223 19.26 132.723 19.26C132.143 19.26 131.713 19.08 131.433 18.72C131.173 18.34 131.043 17.92 131.043 17.46C131.043 16.94 131.173 16.52 131.433 16.2C131.693 15.88 132.023 15.58 132.423 15.3C132.883 14.98 133.473 14.71 134.193 14.49C134.933 14.25 135.763 14.13 136.683 14.13C137.503 14.13 138.203 14.23 138.783 14.43C139.363 14.61 139.843 14.88 140.223 15.24C140.743 15.72 141.083 16.31 141.243 17.01C141.403 17.69 141.483 18.51 141.483 19.47V27.81C141.483 28.31 141.553 28.67 141.693 28.89C141.853 29.11 142.093 29.22 142.413 29.22C142.633 29.22 142.843 29.17 143.043 29.07C143.243 28.97 143.483 28.81 143.763 28.59L144.093 29.1C143.673 29.42 143.273 29.69 142.893 29.91C142.513 30.11 142.003 30.21 141.363 30.21C140.783 30.21 140.303 30.11 139.923 29.91C139.543 29.71 139.253 29.42 139.053 29.04C138.873 28.64 138.783 28.14 138.783 27.54C138.243 28.44 137.593 29.11 136.833 29.55C136.093 29.99 135.253 30.21 134.313 30.21ZM135.393 29.01C136.053 29.01 136.663 28.82 137.223 28.44C137.803 28.06 138.323 27.49 138.783 26.73V20.85C138.543 21.19 138.193 21.48 137.733 21.72C137.273 21.94 136.773 22.17 136.233 22.41C135.693 22.63 135.173 22.9 134.673 23.22C134.193 23.52 133.793 23.92 133.473 24.42C133.153 24.92 132.993 25.57 132.993 26.37C132.993 27.17 133.203 27.81 133.623 28.29C134.063 28.77 134.653 29.01 135.393 29.01ZM158.644 6.48V26.73C158.644 27.63 158.804 28.3 159.124 28.74C159.464 29.16 160.064 29.37 160.924 29.37V30C160.304 29.94 159.684 29.91 159.064 29.91C158.484 29.91 157.924 29.94 157.384 30C156.864 30.06 156.384 30.17 155.944 30.33V10.08C155.944 9.18 155.784 8.52 155.464 8.1C155.144 7.66 154.544 7.44 153.664 7.44V6.81C154.304 6.87 154.924 6.9 155.524 6.9C156.104 6.9 156.654 6.87 157.174 6.81C157.714 6.73 158.204 6.62 158.644 6.48ZM152.344 14.13C153.224 14.13 154.044 14.34 154.804 14.76C155.584 15.18 156.104 15.9 156.364 16.92L155.974 17.22C155.694 16.38 155.254 15.77 154.654 15.39C154.074 15.01 153.384 14.82 152.584 14.82C151.404 14.82 150.414 15.43 149.614 16.65C148.834 17.87 148.454 19.75 148.474 22.29C148.474 23.91 148.624 25.26 148.924 26.34C149.244 27.4 149.704 28.2 150.304 28.74C150.924 29.26 151.674 29.52 152.554 29.52C153.394 29.52 154.154 29.16 154.834 28.44C155.514 27.72 155.924 26.66 156.064 25.26L156.424 25.68C156.264 27.2 155.774 28.37 154.954 29.19C154.154 30.01 153.064 30.42 151.684 30.42C150.444 30.42 149.354 30.12 148.414 29.52C147.494 28.92 146.784 28.02 146.284 26.82C145.804 25.62 145.564 24.11 145.564 22.29C145.564 20.47 145.874 18.96 146.494 17.76C147.134 16.54 147.964 15.63 148.984 15.03C150.024 14.43 151.144 14.13 152.344 14.13ZM172.326 14.13C173.026 14.13 173.636 14.23 174.156 14.43C174.676 14.63 175.106 14.91 175.446 15.27C175.826 15.67 176.086 16.19 176.226 16.83C176.366 17.47 176.436 18.26 176.436 19.2V27.21C176.436 28.05 176.606 28.62 176.946 28.92C177.306 29.22 177.896 29.37 178.716 29.37V30C178.376 29.98 177.856 29.96 177.156 29.94C176.456 29.9 175.776 29.88 175.116 29.88C174.456 29.88 173.806 29.9 173.166 29.94C172.546 29.96 172.076 29.98 171.756 30V29.37C172.476 29.37 172.986 29.22 173.286 28.92C173.586 28.62 173.736 28.05 173.736 27.21V18.54C173.736 17.92 173.696 17.35 173.616 16.83C173.536 16.31 173.336 15.89 173.016 15.57C172.696 15.25 172.176 15.09 171.456 15.09C170.676 15.09 169.976 15.33 169.356 15.81C168.756 16.29 168.276 16.95 167.916 17.79C167.576 18.61 167.406 19.53 167.406 20.55V27.21C167.406 28.05 167.556 28.62 167.856 28.92C168.156 29.22 168.666 29.37 169.386 29.37V30C169.066 29.98 168.586 29.96 167.946 29.94C167.326 29.9 166.686 29.88 166.026 29.88C165.366 29.88 164.686 29.9 163.986 29.94C163.286 29.96 162.766 29.98 162.426 30V29.37C163.246 29.37 163.826 29.22 164.166 28.92C164.526 28.62 164.706 28.05 164.706 27.21V17.82C164.706 16.92 164.546 16.26 164.226 15.84C163.906 15.4 163.306 15.18 162.426 15.18V14.55C163.066 14.61 163.686 14.64 164.286 14.64C164.866 14.64 165.416 14.61 165.936 14.55C166.476 14.47 166.966 14.36 167.406 14.22V17.76C167.926 16.46 168.636 15.53 169.536 14.97C170.436 14.41 171.366 14.13 172.326 14.13ZM181.356 14.13C182.056 14.13 182.666 14.23 183.186 14.43C183.706 14.63 184.136 14.91 184.476 15.27C184.856 15.67 185.116 16.19 185.256 16.83C185.396 17.47 185.466 18.26 185.466 19.2V27.21C185.466 28.05 185.636 28.62 185.976 28.92C186.336 29.22 186.926 29.37 187.746 29.37V30C187.406 29.98 186.886 29.96 186.186 29.94C185.486 29.9 184.806 29.88 184.146 29.88C183.486 29.88 182.836 29.9 182.196 29.94C181.576 29.96 181.106 29.98 180.786 30V29.37C181.506 29.37 182.016 29.22 182.316 28.92C182.616 28.62 182.766 28.05 182.766 27.21V18.54C182.766 17.92 182.726 17.35 182.646 16.83C182.566 16.31 182.366 15.89 182.046 15.57C181.726 15.25 181.206 15.09 180.486 15.09C179.706 15.09 179.006 15.33 178.386 15.81C177.786 16.29 177.306 16.94 176.946 17.76C176.606 18.58 176.436 19.5 176.436 20.52L176.346 17.73C176.886 16.35 177.616 15.41 178.536 14.91C179.456 14.39 180.396 14.13 181.356 14.13ZM193.317 30.21C192.497 30.21 191.787 30.06 191.187 29.76C190.587 29.44 190.127 29 189.807 28.44C189.507 27.88 189.357 27.23 189.357 26.49C189.357 25.61 189.557 24.89 189.957 24.33C190.377 23.77 190.907 23.32 191.547 22.98C192.187 22.64 192.857 22.36 193.557 22.14C194.277 21.9 194.957 21.68 195.597 21.48C196.237 21.26 196.757 21.01 197.157 20.73C197.577 20.45 197.787 20.08 197.787 19.62V17.76C197.787 16.92 197.657 16.28 197.397 15.84C197.157 15.4 196.827 15.11 196.407 14.97C195.987 14.81 195.517 14.73 194.997 14.73C194.497 14.73 193.957 14.8 193.377 14.94C192.817 15.08 192.367 15.37 192.027 15.81C192.407 15.89 192.737 16.09 193.017 16.41C193.297 16.73 193.437 17.14 193.437 17.64C193.437 18.14 193.277 18.54 192.957 18.84C192.637 19.12 192.227 19.26 191.727 19.26C191.147 19.26 190.717 19.08 190.437 18.72C190.177 18.34 190.047 17.92 190.047 17.46C190.047 16.94 190.177 16.52 190.437 16.2C190.697 15.88 191.027 15.58 191.427 15.3C191.887 14.98 192.477 14.71 193.197 14.49C193.937 14.25 194.767 14.13 195.687 14.13C196.507 14.13 197.207 14.23 197.787 14.43C198.367 14.61 198.847 14.88 199.227 15.24C199.747 15.72 200.087 16.31 200.247 17.01C200.407 17.69 200.487 18.51 200.487 19.47V27.81C200.487 28.31 200.557 28.67 200.697 28.89C200.857 29.11 201.097 29.22 201.417 29.22C201.637 29.22 201.847 29.17 202.047 29.07C202.247 28.97 202.487 28.81 202.767 28.59L203.097 29.1C202.677 29.42 202.277 29.69 201.897 29.91C201.517 30.11 201.007 30.21 200.367 30.21C199.787 30.21 199.307 30.11 198.927 29.91C198.547 29.71 198.257 29.42 198.057 29.04C197.877 28.64 197.787 28.14 197.787 27.54C197.247 28.44 196.597 29.11 195.837 29.55C195.097 29.99 194.257 30.21 193.317 30.21ZM194.397 29.01C195.057 29.01 195.667 28.82 196.227 28.44C196.807 28.06 197.327 27.49 197.787 26.73V20.85C197.547 21.19 197.197 21.48 196.737 21.72C196.277 21.94 195.777 22.17 195.237 22.41C194.697 22.63 194.177 22.9 193.677 23.22C193.197 23.52 192.797 23.92 192.477 24.42C192.157 24.92 191.997 25.57 191.997 26.37C191.997 27.17 192.207 27.81 192.627 28.29C193.067 28.77 193.657 29.01 194.397 29.01ZM208.768 14.22V32.64C208.768 33.5 209.018 34.07 209.518 34.35C210.038 34.65 210.748 34.8 211.648 34.8V35.43C211.208 35.41 210.598 35.38 209.818 35.34C209.038 35.32 208.208 35.31 207.328 35.31C206.708 35.31 206.088 35.32 205.468 35.34C204.868 35.38 204.408 35.41 204.088 35.43V34.8C204.808 34.8 205.318 34.67 205.618 34.41C205.918 34.15 206.068 33.66 206.068 32.94V17.82C206.068 16.92 205.908 16.26 205.588 15.84C205.268 15.4 204.668 15.18 203.788 15.18V14.55C204.428 14.61 205.048 14.64 205.648 14.64C206.228 14.64 206.778 14.61 207.298 14.55C207.838 14.47 208.328 14.36 208.768 14.22ZM213.568 14.13C214.628 14.13 215.578 14.42 216.418 15C217.258 15.56 217.918 16.39 218.398 17.49C218.898 18.59 219.148 19.95 219.148 21.57C219.148 22.65 219.018 23.72 218.758 24.78C218.498 25.82 218.088 26.77 217.528 27.63C216.988 28.47 216.278 29.15 215.398 29.67C214.538 30.17 213.498 30.42 212.278 30.42C211.338 30.42 210.518 30.2 209.818 29.76C209.138 29.32 208.678 28.79 208.438 28.17L208.738 27.75C209.018 28.31 209.418 28.78 209.938 29.16C210.478 29.54 211.148 29.73 211.948 29.73C213.068 29.73 213.938 29.38 214.558 28.68C215.178 27.98 215.608 27.05 215.848 25.89C216.108 24.71 216.238 23.41 216.238 21.99C216.238 20.39 216.108 19.08 215.848 18.06C215.588 17.04 215.198 16.28 214.678 15.78C214.158 15.28 213.518 15.03 212.758 15.03C211.778 15.03 210.888 15.44 210.088 16.26C209.288 17.06 208.778 18.28 208.558 19.92L208.198 19.5C208.418 17.8 209.018 16.48 209.998 15.54C210.998 14.6 212.188 14.13 213.568 14.13Z" fill="#32CD32"/>
<path d="M25.5666 59V48.12H28.8146C29.7959 48.12 30.5532 48.3867 31.0866 48.92C31.6306 49.4533 31.9026 50.1627 31.9026 51.048V51.896C31.9026 52.7813 31.6306 53.496 31.0866 54.04C30.5532 54.5733 29.7959 54.84 28.8146 54.84H26.6066V59H25.5666ZM28.8146 49.064H26.6066V53.896H28.8146C29.4759 53.896 29.9719 53.72 30.3026 53.368C30.6439 53.0053 30.8146 52.5147 30.8146 51.896V51.048C30.8146 50.4293 30.6439 49.944 30.3026 49.592C29.9719 49.24 29.4759 49.064 28.8146 49.064ZM37.8061 52.008C37.3581 52.008 36.9101 52.0933 36.4621 52.264C36.0141 52.4347 35.4914 52.8133 34.8941 53.4V59H33.9341V51.208H34.8461V52.504C35.3901 51.9387 35.8967 51.5547 36.3661 51.352C36.8354 51.1493 37.3154 51.048 37.8061 51.048V52.008ZM45.0623 58.536C44.625 58.76 44.1663 58.92 43.6863 59.016C43.217 59.112 42.7903 59.16 42.4063 59.16C41.3183 59.16 40.5076 58.8453 39.9743 58.216C39.4516 57.5867 39.1903 56.7067 39.1903 55.576V54.616C39.1903 53.5387 39.457 52.6747 39.9903 52.024C40.5236 51.3733 41.2916 51.048 42.2943 51.048C43.0836 51.048 43.745 51.2827 44.2783 51.752C44.8223 52.2213 45.0943 52.9307 45.0943 53.88C45.0943 54.3173 45.0303 54.8187 44.9023 55.384H40.1663V55.576C40.1663 56.4507 40.3423 57.1227 40.6943 57.592C41.0463 58.0507 41.617 58.28 42.4063 58.28C42.7263 58.28 43.0943 58.2373 43.5103 58.152C43.937 58.0667 44.3476 57.9333 44.7423 57.752L45.0623 58.536ZM42.2943 51.928C41.5796 51.928 41.0463 52.1627 40.6943 52.632C40.3423 53.0907 40.1663 53.7253 40.1663 54.536H44.0863C44.1076 54.3973 44.1236 54.2693 44.1343 54.152C44.145 54.024 44.1503 53.9067 44.1503 53.8C44.1503 53.1387 43.9636 52.664 43.5903 52.376C43.2276 52.0773 42.7956 51.928 42.2943 51.928ZM49.1769 58.28C49.8276 58.28 50.2809 58.1733 50.5369 57.96C50.8036 57.736 50.9369 57.416 50.9369 57C50.9369 56.648 50.8303 56.36 50.6169 56.136C50.4143 55.912 50.0303 55.7307 49.4649 55.592L48.6009 55.384C47.9929 55.2347 47.5289 54.9733 47.2089 54.6C46.8996 54.216 46.7449 53.752 46.7449 53.208C46.7449 52.8347 46.8249 52.488 46.9849 52.168C47.1556 51.8373 47.4223 51.5707 47.7849 51.368C48.1583 51.1547 48.6489 51.048 49.2569 51.048C49.6516 51.048 50.0516 51.096 50.4569 51.192C50.8623 51.2773 51.2623 51.416 51.6569 51.608L51.3369 52.424C50.5903 52.0933 49.8969 51.928 49.2569 51.928C48.7556 51.928 48.3663 52.0293 48.0889 52.232C47.8223 52.4347 47.6889 52.7387 47.6889 53.144C47.6889 53.4533 47.7849 53.7307 47.9769 53.976C48.1796 54.2213 48.5476 54.408 49.0809 54.536L49.9609 54.744C51.2409 55.0427 51.8809 55.7787 51.8809 56.952C51.8809 57.3573 51.8009 57.7307 51.6409 58.072C51.4809 58.4027 51.2089 58.6693 50.8249 58.872C50.4409 59.064 49.9183 59.16 49.2569 59.16C48.8089 59.16 48.3663 59.112 47.9289 59.016C47.4916 58.92 47.0436 58.7707 46.5849 58.568L46.8409 57.752C47.2676 57.9227 47.6569 58.056 48.0089 58.152C48.3716 58.2373 48.7609 58.28 49.1769 58.28ZM59.5936 58.536C59.1562 58.76 58.6976 58.92 58.2176 59.016C57.7482 59.112 57.3216 59.16 56.9376 59.16C55.8496 59.16 55.0389 58.8453 54.5056 58.216C53.9829 57.5867 53.7216 56.7067 53.7216 55.576V54.616C53.7216 53.5387 53.9882 52.6747 54.5216 52.024C55.0549 51.3733 55.8229 51.048 56.8256 51.048C57.6149 51.048 58.2762 51.2827 58.8096 51.752C59.3536 52.2213 59.6256 52.9307 59.6256 53.88C59.6256 54.3173 59.5616 54.8187 59.4336 55.384H54.6976V55.576C54.6976 56.4507 54.8736 57.1227 55.2256 57.592C55.5776 58.0507 56.1482 58.28 56.9376 58.28C57.2576 58.28 57.6256 58.2373 58.0416 58.152C58.4682 58.0667 58.8789 57.9333 59.2736 57.752L59.5936 58.536ZM56.8256 51.928C56.1109 51.928 55.5776 52.1627 55.2256 52.632C54.8736 53.0907 54.6976 53.7253 54.6976 54.536H58.6176C58.6389 54.3973 58.6549 54.2693 58.6656 54.152C58.6762 54.024 58.6816 53.9067 58.6816 53.8C58.6816 53.1387 58.4949 52.664 58.1216 52.376C57.7589 52.0773 57.3269 51.928 56.8256 51.928ZM65.7082 51.96C65.3775 51.96 64.9989 52.04 64.5722 52.2C64.1455 52.36 63.6122 52.7013 62.9722 53.224V59H62.0122V51.208H62.9242V52.328C63.5429 51.816 64.0869 51.4747 64.5562 51.304C65.0255 51.1333 65.4629 51.048 65.8682 51.048C66.5829 51.048 67.1269 51.2667 67.5002 51.704C67.8735 52.1413 68.0602 52.7707 68.0602 53.592V59H67.1002V53.768C67.1002 53.1387 66.9829 52.68 66.7482 52.392C66.5242 52.104 66.1775 51.96 65.7082 51.96ZM75.0118 58.696C74.4251 59.0053 73.8331 59.16 73.2358 59.16C72.7025 59.16 72.2865 59.0533 71.9878 58.84C71.6891 58.616 71.4811 58.3227 71.3638 57.96C71.2465 57.5973 71.1878 57.2133 71.1878 56.808V52.056H69.7638V51.208H71.1878V48.936H72.1478V51.208H74.7878V52.056H72.1478V56.728C72.1478 57.3253 72.2385 57.7413 72.4198 57.976C72.6118 58.2 72.9211 58.312 73.3478 58.312C73.7531 58.312 74.1958 58.184 74.6758 57.928L75.0118 58.696ZM77.9901 48.984H76.8381V47.816H77.9901V48.984ZM77.8941 59H76.9341V51.208H77.8941V59ZM84.6301 51.96C84.2994 51.96 83.9207 52.04 83.4941 52.2C83.0674 52.36 82.5341 52.7013 81.8941 53.224V59H80.9341V51.208H81.8461V52.328C82.4647 51.816 83.0087 51.4747 83.4781 51.304C83.9474 51.1333 84.3847 51.048 84.7901 51.048C85.5047 51.048 86.0487 51.2667 86.4221 51.704C86.7954 52.1413 86.9821 52.7707 86.9821 53.592V59H86.0221V53.768C86.0221 53.1387 85.9047 52.68 85.6701 52.392C85.4461 52.104 85.0994 51.96 84.6301 51.96ZM96.0137 60.12C96.0137 60.856 95.7097 61.448 95.1017 61.896C94.4937 62.344 93.667 62.568 92.6217 62.568C92.067 62.568 91.5017 62.488 90.9257 62.328C90.3497 62.168 89.795 61.912 89.2617 61.56L89.6457 60.824C90.1897 61.1653 90.707 61.3947 91.1977 61.512C91.699 61.64 92.179 61.704 92.6377 61.704C93.395 61.704 93.9817 61.5653 94.3977 61.288C94.8244 61.0213 95.0377 60.6587 95.0377 60.2C95.0377 59.8693 94.9204 59.6133 94.6857 59.432C94.4617 59.2507 94.0884 59.16 93.5657 59.16H91.7897C91.139 59.16 90.6697 59.0107 90.3817 58.712C90.0937 58.4027 89.9497 58.0667 89.9497 57.704C89.9497 57.1707 90.2004 56.6213 90.7017 56.056C90.3284 55.8427 90.0297 55.544 89.8057 55.16C89.5817 54.7653 89.4697 54.296 89.4697 53.752C89.4697 53.144 89.5924 52.6427 89.8377 52.248C90.0937 51.8427 90.435 51.544 90.8617 51.352C91.299 51.1493 91.779 51.048 92.3017 51.048H92.5737C92.915 51.048 93.2244 51.1013 93.5017 51.208H96.2857V52.088L94.4937 51.88C94.7497 52.0827 94.963 52.3387 95.1337 52.648C95.3044 52.9467 95.3897 53.3147 95.3897 53.752C95.3897 54.3387 95.2617 54.8347 95.0057 55.24C94.7497 55.6347 94.4084 55.9387 93.9817 56.152C93.5657 56.3547 93.0964 56.456 92.5737 56.456H92.3017C91.971 56.456 91.6724 56.4187 91.4057 56.344C91.2137 56.5573 91.075 56.7653 90.9897 56.968C90.9044 57.16 90.8617 57.3413 90.8617 57.512C90.8617 57.9813 91.1977 58.216 91.8697 58.216H93.5497C94.339 58.216 94.947 58.376 95.3737 58.696C95.8004 59.016 96.0137 59.4907 96.0137 60.12ZM92.5737 55.576C93.0537 55.576 93.475 55.4267 93.8377 55.128C94.2004 54.8293 94.3817 54.3707 94.3817 53.752C94.3817 53.1333 94.2004 52.6747 93.8377 52.376C93.475 52.0773 93.0537 51.928 92.5737 51.928H92.3017C91.811 51.928 91.3844 52.0773 91.0217 52.376C90.659 52.6747 90.4777 53.1333 90.4777 53.752C90.4777 54.3707 90.659 54.8293 91.0217 55.128C91.3844 55.4267 91.811 55.576 92.3017 55.576H92.5737ZM107.888 54.616V55.576C107.888 56.7067 107.605 57.5867 107.04 58.216C106.475 58.8453 105.68 59.16 104.656 59.16C103.621 59.16 102.821 58.8453 102.256 58.216C101.701 57.5867 101.424 56.7067 101.424 55.576V54.616C101.424 53.528 101.701 52.664 102.256 52.024C102.821 51.3733 103.621 51.048 104.656 51.048C105.691 51.048 106.485 51.3733 107.04 52.024C107.605 52.664 107.888 53.528 107.888 54.616ZM106.88 54.616C106.88 53.7627 106.688 53.1013 106.304 52.632C105.92 52.1627 105.371 51.928 104.656 51.928C103.941 51.928 103.392 52.1627 103.008 52.632C102.624 53.1013 102.432 53.7627 102.432 54.616V55.576C102.432 56.4613 102.624 57.1333 103.008 57.592C103.392 58.0507 103.941 58.28 104.656 58.28C105.371 58.28 105.92 58.0507 106.304 57.592C106.688 57.1333 106.88 56.4613 106.88 55.576V54.616ZM115.393 59V57.88C114.795 58.3813 114.267 58.7227 113.809 58.904C113.361 59.0747 112.934 59.16 112.529 59.16C111.846 59.16 111.323 58.9413 110.961 58.504C110.598 58.056 110.417 57.4267 110.417 56.616V51.208H111.377V56.44C111.377 57.0587 111.483 57.5173 111.697 57.816C111.91 58.104 112.241 58.248 112.689 58.248C113.009 58.248 113.371 58.168 113.777 58.008C114.193 57.8373 114.715 57.496 115.345 56.984V51.208H116.305V59H115.393ZM123.212 52.008C122.764 52.008 122.316 52.0933 121.868 52.264C121.42 52.4347 120.898 52.8133 120.3 53.4V59H119.34V51.208H120.252V52.504C120.796 51.9387 121.303 51.5547 121.772 51.352C122.242 51.1493 122.722 51.048 123.212 51.048V52.008ZM132.556 52.008C132.108 52.008 131.66 52.0933 131.212 52.264C130.764 52.4347 130.241 52.8133 129.644 53.4V59H128.684V51.208H129.596V52.504C130.14 51.9387 130.647 51.5547 131.116 51.352C131.585 51.1493 132.065 51.048 132.556 51.048V52.008ZM140.372 54.616V55.576C140.372 56.7067 140.09 57.5867 139.524 58.216C138.959 58.8453 138.164 59.16 137.14 59.16C136.106 59.16 135.306 58.8453 134.74 58.216C134.186 57.5867 133.908 56.7067 133.908 55.576V54.616C133.908 53.528 134.186 52.664 134.74 52.024C135.306 51.3733 136.106 51.048 137.14 51.048C138.175 51.048 138.97 51.3733 139.524 52.024C140.09 52.664 140.372 53.528 140.372 54.616ZM139.364 54.616C139.364 53.7627 139.172 53.1013 138.788 52.632C138.404 52.1627 137.855 51.928 137.14 51.928C136.426 51.928 135.876 52.1627 135.492 52.632C135.108 53.1013 134.916 53.7627 134.916 54.616V55.576C134.916 56.4613 135.108 57.1333 135.492 57.592C135.876 58.0507 136.426 58.28 137.14 58.28C137.855 58.28 138.404 58.0507 138.788 57.592C139.172 57.1333 139.364 56.4613 139.364 55.576V54.616ZM148.533 59.08C148.096 59.08 147.733 58.9733 147.445 58.76C147.157 58.536 146.986 58.2427 146.933 57.88C146.357 58.392 145.85 58.7333 145.413 58.904C144.976 59.0747 144.565 59.16 144.181 59.16C143.498 59.16 142.992 58.9413 142.661 58.504C142.341 58.056 142.181 57.5227 142.181 56.904C142.181 56.488 142.256 56.1147 142.405 55.784C142.565 55.4533 142.826 55.192 143.189 55C143.552 54.7973 144.048 54.696 144.677 54.696C144.965 54.696 145.301 54.7173 145.685 54.76C146.069 54.792 146.442 54.84 146.805 54.904V53.752C146.805 53.0587 146.672 52.584 146.405 52.328C146.138 52.0613 145.722 51.928 145.157 51.928C144.773 51.928 144.394 51.9813 144.021 52.088C143.648 52.184 143.258 52.328 142.853 52.52L142.517 51.736C142.954 51.512 143.386 51.3413 143.813 51.224C144.25 51.1067 144.698 51.048 145.157 51.048C145.872 51.048 146.41 51.1653 146.773 51.4C147.146 51.624 147.402 51.928 147.541 52.312C147.68 52.696 147.749 53.1227 147.749 53.592V57.208C147.749 57.5067 147.797 57.7467 147.893 57.928C148 58.1093 148.202 58.2 148.501 58.2H148.693V59.08H148.533ZM143.173 56.904C143.173 57.3307 143.269 57.672 143.461 57.928C143.664 58.184 143.952 58.312 144.325 58.312C144.624 58.312 144.97 58.216 145.365 58.024C145.77 57.832 146.25 57.4853 146.805 56.984V55.752C146.432 55.688 146.048 55.64 145.653 55.608C145.269 55.5653 144.949 55.544 144.693 55.544C144.16 55.544 143.77 55.656 143.525 55.88C143.29 56.0933 143.173 56.4347 143.173 56.904ZM155.595 59V57.896C155.115 58.3333 154.656 58.6533 154.219 58.856C153.782 59.0587 153.334 59.16 152.875 59.16C152.064 59.16 151.44 58.8453 151.003 58.216C150.566 57.5867 150.347 56.7067 150.347 55.576V54.616C150.347 53.528 150.619 52.664 151.163 52.024C151.707 51.3733 152.502 51.048 153.547 51.048C153.888 51.048 154.224 51.0853 154.555 51.16C154.886 51.224 155.216 51.32 155.547 51.448V47.16H156.507V59H155.595ZM151.355 55.576C151.355 56.4933 151.494 57.1707 151.771 57.608C152.048 58.0347 152.48 58.248 153.067 58.248C153.408 58.248 153.76 58.1627 154.123 57.992C154.496 57.8213 154.971 57.4747 155.547 56.952V52.376C154.886 52.0773 154.235 51.928 153.595 51.928C152.795 51.928 152.219 52.168 151.867 52.648C151.526 53.128 151.355 53.784 151.355 54.616V55.576ZM163.159 51.96C162.839 51.96 162.471 52.0453 162.055 52.216C161.65 52.376 161.133 52.712 160.503 53.224V59H159.543V51.208H160.455V52.328C161.053 51.8267 161.575 51.4907 162.023 51.32C162.482 51.1387 162.914 51.048 163.319 51.048C164.311 51.048 164.957 51.496 165.255 52.392C165.885 51.8587 166.434 51.5013 166.903 51.32C167.383 51.1387 167.831 51.048 168.247 51.048C168.941 51.048 169.463 51.2667 169.815 51.704C170.178 52.1413 170.359 52.7707 170.359 53.592V59H169.399V53.768C169.399 53.1387 169.293 52.68 169.079 52.392C168.866 52.104 168.535 51.96 168.087 51.96C167.767 51.96 167.399 52.0453 166.983 52.216C166.567 52.376 166.045 52.712 165.415 53.224C165.426 53.2773 165.431 53.336 165.431 53.4C165.431 53.464 165.431 53.528 165.431 53.592V59H164.471V53.768C164.471 53.1387 164.365 52.68 164.151 52.392C163.938 52.104 163.607 51.96 163.159 51.96ZM178.877 59.08C178.439 59.08 178.077 58.9733 177.789 58.76C177.501 58.536 177.33 58.2427 177.277 57.88C176.701 58.392 176.194 58.7333 175.757 58.904C175.319 59.0747 174.909 59.16 174.525 59.16C173.842 59.16 173.335 58.9413 173.005 58.504C172.685 58.056 172.525 57.5227 172.525 56.904C172.525 56.488 172.599 56.1147 172.749 55.784C172.909 55.4533 173.17 55.192 173.533 55C173.895 54.7973 174.391 54.696 175.021 54.696C175.309 54.696 175.645 54.7173 176.029 54.76C176.413 54.792 176.786 54.84 177.149 54.904V53.752C177.149 53.0587 177.015 52.584 176.749 52.328C176.482 52.0613 176.066 51.928 175.501 51.928C175.117 51.928 174.738 51.9813 174.365 52.088C173.991 52.184 173.602 52.328 173.197 52.52L172.861 51.736C173.298 51.512 173.73 51.3413 174.157 51.224C174.594 51.1067 175.042 51.048 175.501 51.048C176.215 51.048 176.754 51.1653 177.117 51.4C177.49 51.624 177.746 51.928 177.885 52.312C178.023 52.696 178.093 53.1227 178.093 53.592V57.208C178.093 57.5067 178.141 57.7467 178.237 57.928C178.343 58.1093 178.546 58.2 178.845 58.2H179.037V59.08H178.877ZM173.517 56.904C173.517 57.3307 173.613 57.672 173.805 57.928C174.007 58.184 174.295 58.312 174.669 58.312C174.967 58.312 175.314 58.216 175.709 58.024C176.114 57.832 176.594 57.4853 177.149 56.984V55.752C176.775 55.688 176.391 55.64 175.997 55.608C175.613 55.5653 175.293 55.544 175.037 55.544C174.503 55.544 174.114 55.656 173.869 55.88C173.634 56.0933 173.517 56.4347 173.517 56.904ZM184.035 59.16C183.704 59.16 183.368 59.1227 183.027 59.048C182.696 58.984 182.365 58.888 182.035 58.76V62.408H181.075V51.208H181.987V52.312C182.467 51.8747 182.925 51.5547 183.363 51.352C183.8 51.1493 184.248 51.048 184.707 51.048C185.528 51.048 186.152 51.3627 186.579 51.992C187.016 52.6107 187.235 53.4907 187.235 54.632V55.592C187.235 56.68 186.963 57.5493 186.419 58.2C185.875 58.84 185.08 59.16 184.035 59.16ZM184.515 51.96C184.173 51.96 183.816 52.0453 183.443 52.216C183.08 52.376 182.611 52.7227 182.035 53.256V57.832C182.696 58.1307 183.347 58.28 183.987 58.28C184.787 58.28 185.357 58.04 185.699 57.56C186.051 57.08 186.227 56.424 186.227 55.592V54.632C186.227 53.7147 186.088 53.0427 185.811 52.616C185.533 52.1787 185.101 51.96 184.515 51.96ZM199.127 59.08C198.689 59.08 198.327 58.9733 198.039 58.76C197.751 58.536 197.58 58.2427 197.527 57.88C196.951 58.392 196.444 58.7333 196.007 58.904C195.569 59.0747 195.159 59.16 194.775 59.16C194.092 59.16 193.585 58.9413 193.255 58.504C192.935 58.056 192.775 57.5227 192.775 56.904C192.775 56.488 192.849 56.1147 192.999 55.784C193.159 55.4533 193.42 55.192 193.783 55C194.145 54.7973 194.641 54.696 195.271 54.696C195.559 54.696 195.895 54.7173 196.279 54.76C196.663 54.792 197.036 54.84 197.399 54.904V53.752C197.399 53.0587 197.265 52.584 196.999 52.328C196.732 52.0613 196.316 51.928 195.751 51.928C195.367 51.928 194.988 51.9813 194.615 52.088C194.241 52.184 193.852 52.328 193.447 52.52L193.111 51.736C193.548 51.512 193.98 51.3413 194.407 51.224C194.844 51.1067 195.292 51.048 195.751 51.048C196.465 51.048 197.004 51.1653 197.367 51.4C197.74 51.624 197.996 51.928 198.135 52.312C198.273 52.696 198.343 53.1227 198.343 53.592V57.208C198.343 57.5067 198.391 57.7467 198.487 57.928C198.593 58.1093 198.796 58.2 199.095 58.2H199.287V59.08H199.127ZM193.767 56.904C193.767 57.3307 193.863 57.672 194.055 57.928C194.257 58.184 194.545 58.312 194.919 58.312C195.217 58.312 195.564 58.216 195.959 58.024C196.364 57.832 196.844 57.4853 197.399 56.984V55.752C197.025 55.688 196.641 55.64 196.247 55.608C195.863 55.5653 195.543 55.544 195.287 55.544C194.753 55.544 194.364 55.656 194.119 55.88C193.884 56.0933 193.767 56.4347 193.767 56.904ZM203.021 58.28C203.671 58.28 204.125 58.1733 204.381 57.96C204.647 57.736 204.781 57.416 204.781 57C204.781 56.648 204.674 56.36 204.461 56.136C204.258 55.912 203.874 55.7307 203.309 55.592L202.445 55.384C201.837 55.2347 201.373 54.9733 201.053 54.6C200.743 54.216 200.589 53.752 200.589 53.208C200.589 52.8347 200.669 52.488 200.829 52.168C200.999 51.8373 201.266 51.5707 201.629 51.368C202.002 51.1547 202.493 51.048 203.101 51.048C203.495 51.048 203.895 51.096 204.301 51.192C204.706 51.2773 205.106 51.416 205.501 51.608L205.181 52.424C204.434 52.0933 203.741 51.928 203.101 51.928C202.599 51.928 202.21 52.0293 201.933 52.232C201.666 52.4347 201.533 52.7387 201.533 53.144C201.533 53.4533 201.629 53.7307 201.821 53.976C202.023 54.2213 202.391 54.408 202.925 54.536L203.805 54.744C205.085 55.0427 205.725 55.7787 205.725 56.952C205.725 57.3573 205.645 57.7307 205.485 58.072C205.325 58.4027 205.053 58.6693 204.669 58.872C204.285 59.064 203.762 59.16 203.101 59.16C202.653 59.16 202.21 59.112 201.773 59.016C201.335 58.92 200.887 58.7707 200.429 58.568L200.685 57.752C201.111 57.9227 201.501 58.056 201.853 58.152C202.215 58.2373 202.605 58.28 203.021 58.28ZM220.837 51.208L218.837 59H217.637L215.765 52.264L213.861 59H212.661L210.677 51.208H211.669L212.485 54.584L213.301 57.976L215.237 51.208H216.341L218.245 58.008L219.061 54.584L219.861 51.208H220.837ZM228.375 58.536C227.937 58.76 227.479 58.92 226.999 59.016C226.529 59.112 226.103 59.16 225.719 59.16C224.631 59.16 223.82 58.8453 223.287 58.216C222.764 57.5867 222.503 56.7067 222.503 55.576V54.616C222.503 53.5387 222.769 52.6747 223.303 52.024C223.836 51.3733 224.604 51.048 225.607 51.048C226.396 51.048 227.057 51.2827 227.591 51.752C228.135 52.2213 228.407 52.9307 228.407 53.88C228.407 54.3173 228.343 54.8187 228.215 55.384H223.479V55.576C223.479 56.4507 223.655 57.1227 224.007 57.592C224.359 58.0507 224.929 58.28 225.719 58.28C226.039 58.28 226.407 58.2373 226.823 58.152C227.249 58.0667 227.66 57.9333 228.055 57.752L228.375 58.536ZM225.607 51.928C224.892 51.928 224.359 52.1627 224.007 52.632C223.655 53.0907 223.479 53.7253 223.479 54.536H227.399C227.42 54.3973 227.436 54.2693 227.447 54.152C227.457 54.024 227.463 53.9067 227.463 53.8C227.463 53.1387 227.276 52.664 226.903 52.376C226.54 52.0773 226.108 51.928 225.607 51.928ZM6.53469 78.16C6.20402 78.16 5.86802 78.1227 5.52669 78.048C5.19602 77.984 4.86535 77.888 4.53469 77.76V81.408H3.57469V70.208H4.48669V71.312C4.96669 70.8747 5.42535 70.5547 5.86269 70.352C6.30002 70.1493 6.74802 70.048 7.20669 70.048C8.02802 70.048 8.65202 70.3627 9.07869 70.992C9.51602 71.6107 9.73469 72.4907 9.73469 73.632V74.592C9.73469 75.68 9.46269 76.5493 8.91869 77.2C8.37469 77.84 7.58002 78.16 6.53469 78.16ZM7.01469 70.96C6.67335 70.96 6.31602 71.0453 5.94269 71.216C5.58002 71.376 5.11069 71.7227 4.53469 72.256V76.832C5.19602 77.1307 5.84669 77.28 6.48669 77.28C7.28669 77.28 7.85735 77.04 8.19869 76.56C8.55069 76.08 8.72669 75.424 8.72669 74.592V73.632C8.72669 72.7147 8.58802 72.0427 8.31069 71.616C8.03335 71.1787 7.60135 70.96 7.01469 70.96ZM16.2592 71.008C15.8112 71.008 15.3632 71.0933 14.9152 71.264C14.4672 71.4347 13.9445 71.8133 13.3472 72.4V78H12.3872V70.208H13.2992V71.504C13.8432 70.9387 14.3499 70.5547 14.8192 70.352C15.2885 70.1493 15.7685 70.048 16.2592 70.048V71.008ZM23.5154 77.536C23.0781 77.76 22.6194 77.92 22.1394 78.016C21.6701 78.112 21.2434 78.16 20.8594 78.16C19.7714 78.16 18.9608 77.8453 18.4274 77.216C17.9048 76.5867 17.6434 75.7067 17.6434 74.576V73.616C17.6434 72.5387 17.9101 71.6747 18.4434 71.024C18.9768 70.3733 19.7448 70.048 20.7474 70.048C21.5368 70.048 22.1981 70.2827 22.7314 70.752C23.2754 71.2213 23.5474 71.9307 23.5474 72.88C23.5474 73.3173 23.4834 73.8187 23.3554 74.384H18.6194V74.576C18.6194 75.4507 18.7954 76.1227 19.1474 76.592C19.4994 77.0507 20.0701 77.28 20.8594 77.28C21.1794 77.28 21.5474 77.2373 21.9634 77.152C22.3901 77.0667 22.8008 76.9333 23.1954 76.752L23.5154 77.536ZM20.7474 70.928C20.0328 70.928 19.4994 71.1627 19.1474 71.632C18.7954 72.0907 18.6194 72.7253 18.6194 73.536H22.5394C22.5608 73.3973 22.5768 73.2693 22.5874 73.152C22.5981 73.024 22.6034 72.9067 22.6034 72.8C22.6034 72.1387 22.4168 71.664 22.0434 71.376C21.6808 71.0773 21.2488 70.928 20.7474 70.928ZM28.8941 78.16C28.5634 78.16 28.2274 78.1227 27.8861 78.048C27.5554 77.984 27.2247 77.888 26.8941 77.76V81.408H25.9341V70.208H26.8461V71.312C27.3261 70.8747 27.7847 70.5547 28.2221 70.352C28.6594 70.1493 29.1074 70.048 29.5661 70.048C30.3874 70.048 31.0114 70.3627 31.4381 70.992C31.8754 71.6107 32.0941 72.4907 32.0941 73.632V74.592C32.0941 75.68 31.8221 76.5493 31.2781 77.2C30.7341 77.84 29.9394 78.16 28.8941 78.16ZM29.3741 70.96C29.0327 70.96 28.6754 71.0453 28.3021 71.216C27.9394 71.376 27.4701 71.7227 26.8941 72.256V76.832C27.5554 77.1307 28.2061 77.28 28.8461 77.28C29.6461 77.28 30.2167 77.04 30.5581 76.56C30.9101 76.08 31.0861 75.424 31.0861 74.592V73.632C31.0861 72.7147 30.9474 72.0427 30.6701 71.616C30.3927 71.1787 29.9607 70.96 29.3741 70.96ZM40.2986 78.08C39.8612 78.08 39.4986 77.9733 39.2106 77.76C38.9226 77.536 38.7519 77.2427 38.6986 76.88C38.1226 77.392 37.6159 77.7333 37.1786 77.904C36.7412 78.0747 36.3306 78.16 35.9466 78.16C35.2639 78.16 34.7572 77.9413 34.4266 77.504C34.1066 77.056 33.9466 76.5227 33.9466 75.904C33.9466 75.488 34.0212 75.1147 34.1706 74.784C34.3306 74.4533 34.5919 74.192 34.9546 74C35.3172 73.7973 35.8132 73.696 36.4426 73.696C36.7306 73.696 37.0666 73.7173 37.4506 73.76C37.8346 73.792 38.2079 73.84 38.5706 73.904V72.752C38.5706 72.0587 38.4372 71.584 38.1706 71.328C37.9039 71.0613 37.4879 70.928 36.9226 70.928C36.5386 70.928 36.1599 70.9813 35.7866 71.088C35.4132 71.184 35.0239 71.328 34.6186 71.52L34.2826 70.736C34.7199 70.512 35.1519 70.3413 35.5786 70.224C36.0159 70.1067 36.4639 70.048 36.9226 70.048C37.6372 70.048 38.1759 70.1653 38.5386 70.4C38.9119 70.624 39.1679 70.928 39.3066 71.312C39.4452 71.696 39.5146 72.1227 39.5146 72.592V76.208C39.5146 76.5067 39.5626 76.7467 39.6586 76.928C39.7652 77.1093 39.9679 77.2 40.2666 77.2H40.4586V78.08H40.2986ZM34.9386 75.904C34.9386 76.3307 35.0346 76.672 35.2266 76.928C35.4292 77.184 35.7172 77.312 36.0906 77.312C36.3892 77.312 36.7359 77.216 37.1306 77.024C37.5359 76.832 38.0159 76.4853 38.5706 75.984V74.752C38.1972 74.688 37.8132 74.64 37.4186 74.608C37.0346 74.5653 36.7146 74.544 36.4586 74.544C35.9252 74.544 35.5359 74.656 35.2906 74.88C35.0559 75.0933 34.9386 75.4347 34.9386 75.904ZM46.3686 71.008C45.9206 71.008 45.4726 71.0933 45.0246 71.264C44.5766 71.4347 44.0539 71.8133 43.4566 72.4V78H42.4966V70.208H43.4086V71.504C43.9526 70.9387 44.4592 70.5547 44.9286 70.352C45.3979 70.1493 45.8779 70.048 46.3686 70.048V71.008ZM53.6248 77.536C53.1875 77.76 52.7288 77.92 52.2488 78.016C51.7795 78.112 51.3528 78.16 50.9688 78.16C49.8808 78.16 49.0701 77.8453 48.5368 77.216C48.0141 76.5867 47.7528 75.7067 47.7528 74.576V73.616C47.7528 72.5387 48.0195 71.6747 48.5528 71.024C49.0861 70.3733 49.8541 70.048 50.8568 70.048C51.6461 70.048 52.3075 70.2827 52.8408 70.752C53.3848 71.2213 53.6568 71.9307 53.6568 72.88C53.6568 73.3173 53.5928 73.8187 53.4648 74.384H48.7288V74.576C48.7288 75.4507 48.9048 76.1227 49.2568 76.592C49.6088 77.0507 50.1795 77.28 50.9688 77.28C51.2888 77.28 51.6568 77.2373 52.0728 77.152C52.4995 77.0667 52.9101 76.9333 53.3048 76.752L53.6248 77.536ZM50.8568 70.928C50.1421 70.928 49.6088 71.1627 49.2568 71.632C48.9048 72.0907 48.7288 72.7253 48.7288 73.536H52.6488C52.6701 73.3973 52.6861 73.2693 52.6968 73.152C52.7075 73.024 52.7128 72.9067 52.7128 72.8C52.7128 72.1387 52.5261 71.664 52.1528 71.376C51.7901 71.0773 51.3581 70.928 50.8568 70.928ZM63.5389 71.056H60.8989V78H59.9389V71.056H58.5149V70.208H59.9389V68.576C59.9389 68.1493 60.0083 67.744 60.1469 67.36C60.2963 66.9653 60.5416 66.64 60.8829 66.384C61.2243 66.128 61.6936 66 62.2909 66C62.5683 66 62.8616 66.032 63.1709 66.096C63.4909 66.16 63.8056 66.2667 64.1149 66.416L63.7949 67.2C63.2616 66.9653 62.7709 66.848 62.3229 66.848C61.8749 66.848 61.5229 66.9867 61.2669 67.264C61.0216 67.5413 60.8989 67.9733 60.8989 68.56V70.208H63.5389V71.056ZM71.0754 73.616V74.576C71.0754 75.7067 70.7928 76.5867 70.2274 77.216C69.6621 77.8453 68.8674 78.16 67.8434 78.16C66.8088 78.16 66.0088 77.8453 65.4434 77.216C64.8888 76.5867 64.6114 75.7067 64.6114 74.576V73.616C64.6114 72.528 64.8888 71.664 65.4434 71.024C66.0088 70.3733 66.8088 70.048 67.8434 70.048C68.8781 70.048 69.6728 70.3733 70.2274 71.024C70.7928 71.664 71.0754 72.528 71.0754 73.616ZM70.0674 73.616C70.0674 72.7627 69.8754 72.1013 69.4914 71.632C69.1074 71.1627 68.5581 70.928 67.8434 70.928C67.1288 70.928 66.5794 71.1627 66.1954 71.632C65.8114 72.1013 65.6194 72.7627 65.6194 73.616V74.576C65.6194 75.4613 65.8114 76.1333 66.1954 76.592C66.5794 77.0507 67.1288 77.28 67.8434 77.28C68.5581 77.28 69.1074 77.0507 69.4914 76.592C69.8754 76.1333 70.0674 75.4613 70.0674 74.576V73.616ZM77.5561 71.008C77.1081 71.008 76.6601 71.0933 76.2121 71.264C75.7641 71.4347 75.2414 71.8133 74.6441 72.4V78H73.6841V70.208H74.5961V71.504C75.1401 70.9387 75.6467 70.5547 76.1161 70.352C76.5854 70.1493 77.0654 70.048 77.5561 70.048V71.008ZM88.5798 78.08C88.1425 78.08 87.7798 77.9733 87.4918 77.76C87.2038 77.536 87.0331 77.2427 86.9798 76.88C86.4038 77.392 85.8971 77.7333 85.4598 77.904C85.0225 78.0747 84.6118 78.16 84.2278 78.16C83.5451 78.16 83.0385 77.9413 82.7078 77.504C82.3878 77.056 82.2278 76.5227 82.2278 75.904C82.2278 75.488 82.3025 75.1147 82.4518 74.784C82.6118 74.4533 82.8731 74.192 83.2358 74C83.5985 73.7973 84.0945 73.696 84.7238 73.696C85.0118 73.696 85.3478 73.7173 85.7318 73.76C86.1158 73.792 86.4891 73.84 86.8518 73.904V72.752C86.8518 72.0587 86.7185 71.584 86.4518 71.328C86.1851 71.0613 85.7691 70.928 85.2038 70.928C84.8198 70.928 84.4411 70.9813 84.0678 71.088C83.6945 71.184 83.3051 71.328 82.8998 71.52L82.5638 70.736C83.0011 70.512 83.4331 70.3413 83.8598 70.224C84.2971 70.1067 84.7451 70.048 85.2038 70.048C85.9185 70.048 86.4571 70.1653 86.8198 70.4C87.1931 70.624 87.4491 70.928 87.5878 71.312C87.7265 71.696 87.7958 72.1227 87.7958 72.592V76.208C87.7958 76.5067 87.8438 76.7467 87.9398 76.928C88.0465 77.1093 88.2491 77.2 88.5478 77.2H88.7398V78.08H88.5798ZM83.2198 75.904C83.2198 76.3307 83.3158 76.672 83.5078 76.928C83.7105 77.184 83.9985 77.312 84.3718 77.312C84.6705 77.312 85.0171 77.216 85.4118 77.024C85.8171 76.832 86.2971 76.4853 86.8518 75.984V74.752C86.4785 74.688 86.0945 74.64 85.6998 74.608C85.3158 74.5653 84.9958 74.544 84.7398 74.544C84.2065 74.544 83.8171 74.656 83.5718 74.88C83.3371 75.0933 83.2198 75.4347 83.2198 75.904ZM100.529 79.12C100.529 79.856 100.225 80.448 99.6173 80.896C99.0093 81.344 98.1826 81.568 97.1373 81.568C96.5826 81.568 96.0173 81.488 95.4413 81.328C94.8653 81.168 94.3106 80.912 93.7773 80.56L94.1613 79.824C94.7053 80.1653 95.2226 80.3947 95.7133 80.512C96.2146 80.64 96.6946 80.704 97.1533 80.704C97.9106 80.704 98.4973 80.5653 98.9133 80.288C99.34 80.0213 99.5533 79.6587 99.5533 79.2C99.5533 78.8693 99.436 78.6133 99.2013 78.432C98.9773 78.2507 98.604 78.16 98.0813 78.16H96.3053C95.6546 78.16 95.1853 78.0107 94.8973 77.712C94.6093 77.4027 94.4653 77.0667 94.4653 76.704C94.4653 76.1707 94.716 75.6213 95.2173 75.056C94.844 74.8427 94.5453 74.544 94.3213 74.16C94.0973 73.7653 93.9853 73.296 93.9853 72.752C93.9853 72.144 94.108 71.6427 94.3533 71.248C94.6093 70.8427 94.9506 70.544 95.3773 70.352C95.8146 70.1493 96.2946 70.048 96.8173 70.048H97.0893C97.4306 70.048 97.74 70.1013 98.0173 70.208H100.801V71.088L99.0093 70.88C99.2653 71.0827 99.4786 71.3387 99.6493 71.648C99.82 71.9467 99.9053 72.3147 99.9053 72.752C99.9053 73.3387 99.7773 73.8347 99.5213 74.24C99.2653 74.6347 98.924 74.9387 98.4973 75.152C98.0813 75.3547 97.612 75.456 97.0893 75.456H96.8173C96.4866 75.456 96.188 75.4187 95.9213 75.344C95.7293 75.5573 95.5906 75.7653 95.5053 75.968C95.42 76.16 95.3773 76.3413 95.3773 76.512C95.3773 76.9813 95.7133 77.216 96.3853 77.216H98.0653C98.8546 77.216 99.4626 77.376 99.8893 77.696C100.316 78.016 100.529 78.4907 100.529 79.12ZM97.0893 74.576C97.5693 74.576 97.9906 74.4267 98.3533 74.128C98.716 73.8293 98.8973 73.3707 98.8973 72.752C98.8973 72.1333 98.716 71.6747 98.3533 71.376C97.9906 71.0773 97.5693 70.928 97.0893 70.928H96.8173C96.3266 70.928 95.9 71.0773 95.5373 71.376C95.1746 71.6747 94.9933 72.1333 94.9933 72.752C94.9933 73.3707 95.1746 73.8293 95.5373 74.128C95.9 74.4267 96.3266 74.576 96.8173 74.576H97.0893ZM106.556 71.008C106.108 71.008 105.66 71.0933 105.212 71.264C104.764 71.4347 104.241 71.8133 103.644 72.4V78H102.684V70.208H103.596V71.504C104.14 70.9387 104.647 70.5547 105.116 70.352C105.585 70.1493 106.065 70.048 106.556 70.048V71.008ZM114.372 73.616V74.576C114.372 75.7067 114.09 76.5867 113.524 77.216C112.959 77.8453 112.164 78.16 111.14 78.16C110.106 78.16 109.306 77.8453 108.74 77.216C108.186 76.5867 107.908 75.7067 107.908 74.576V73.616C107.908 72.528 108.186 71.664 108.74 71.024C109.306 70.3733 110.106 70.048 111.14 70.048C112.175 70.048 112.97 70.3733 113.524 71.024C114.09 71.664 114.372 72.528 114.372 73.616ZM113.364 73.616C113.364 72.7627 113.172 72.1013 112.788 71.632C112.404 71.1627 111.855 70.928 111.14 70.928C110.426 70.928 109.876 71.1627 109.492 71.632C109.108 72.1013 108.916 72.7627 108.916 73.616V74.576C108.916 75.4613 109.108 76.1333 109.492 76.592C109.876 77.0507 110.426 77.28 111.14 77.28C111.855 77.28 112.404 77.0507 112.788 76.592C113.172 76.1333 113.364 75.4613 113.364 74.576V73.616ZM121.877 78V76.88C121.28 77.3813 120.752 77.7227 120.293 77.904C119.845 78.0747 119.418 78.16 119.013 78.16C118.33 78.16 117.808 77.9413 117.445 77.504C117.082 77.056 116.901 76.4267 116.901 75.616V70.208H117.861V75.44C117.861 76.0587 117.968 76.5173 118.181 76.816C118.394 77.104 118.725 77.248 119.173 77.248C119.493 77.248 119.856 77.168 120.261 77.008C120.677 76.8373 121.2 76.496 121.829 75.984V70.208H122.789V78H121.877ZM129.521 70.96C129.19 70.96 128.811 71.04 128.385 71.2C127.958 71.36 127.425 71.7013 126.785 72.224V78H125.825V70.208H126.737V71.328C127.355 70.816 127.899 70.4747 128.369 70.304C128.838 70.1333 129.275 70.048 129.681 70.048C130.395 70.048 130.939 70.2667 131.313 70.704C131.686 71.1413 131.873 71.7707 131.873 72.592V78H130.913V72.768C130.913 72.1387 130.795 71.68 130.561 71.392C130.337 71.104 129.99 70.96 129.521 70.96ZM139.704 78V76.896C139.224 77.3333 138.766 77.6533 138.328 77.856C137.891 78.0587 137.443 78.16 136.984 78.16C136.174 78.16 135.55 77.8453 135.112 77.216C134.675 76.5867 134.456 75.7067 134.456 74.576V73.616C134.456 72.528 134.728 71.664 135.272 71.024C135.816 70.3733 136.611 70.048 137.656 70.048C137.998 70.048 138.334 70.0853 138.664 70.16C138.995 70.224 139.326 70.32 139.656 70.448V66.16H140.616V78H139.704ZM135.464 74.576C135.464 75.4933 135.603 76.1707 135.88 76.608C136.158 77.0347 136.59 77.248 137.176 77.248C137.518 77.248 137.87 77.1627 138.232 76.992C138.606 76.8213 139.08 76.4747 139.656 75.952V71.376C138.995 71.0773 138.344 70.928 137.704 70.928C136.904 70.928 136.328 71.168 135.976 71.648C135.635 72.128 135.464 72.784 135.464 73.616V74.576ZM149.765 74.592C149.765 75.68 149.493 76.5493 148.949 77.2C148.405 77.84 147.61 78.16 146.565 78.16C145.573 78.16 144.586 77.8987 143.605 77.376V66.16H144.565V71.28C145.034 70.8427 145.482 70.528 145.909 70.336C146.346 70.144 146.789 70.048 147.237 70.048C148.058 70.048 148.682 70.3627 149.109 70.992C149.546 71.6107 149.765 72.4907 149.765 73.632V74.592ZM147.045 70.96C146.703 70.96 146.346 71.0453 145.973 71.216C145.61 71.376 145.141 71.7227 144.565 72.256V76.832C145.226 77.1307 145.877 77.28 146.517 77.28C147.317 77.28 147.887 77.04 148.229 76.56C148.581 76.08 148.757 75.424 148.757 74.592V73.632C148.757 72.7147 148.618 72.0427 148.341 71.616C148.063 71.1787 147.631 70.96 147.045 70.96ZM156.29 71.008C155.842 71.008 155.394 71.0933 154.946 71.264C154.498 71.4347 153.976 71.8133 153.378 72.4V78H152.418V70.208H153.33V71.504C153.874 70.9387 154.381 70.5547 154.85 70.352C155.32 70.1493 155.8 70.048 156.29 70.048V71.008ZM163.547 77.536C163.109 77.76 162.651 77.92 162.171 78.016C161.701 78.112 161.275 78.16 160.891 78.16C159.803 78.16 158.992 77.8453 158.459 77.216C157.936 76.5867 157.675 75.7067 157.675 74.576V73.616C157.675 72.5387 157.941 71.6747 158.475 71.024C159.008 70.3733 159.776 70.048 160.779 70.048C161.568 70.048 162.229 70.2827 162.763 70.752C163.307 71.2213 163.579 71.9307 163.579 72.88C163.579 73.3173 163.515 73.8187 163.387 74.384H158.651V74.576C158.651 75.4507 158.827 76.1227 159.179 76.592C159.531 77.0507 160.101 77.28 160.891 77.28C161.211 77.28 161.579 77.2373 161.995 77.152C162.421 77.0667 162.832 76.9333 163.227 76.752L163.547 77.536ZM160.779 70.928C160.064 70.928 159.531 71.1627 159.179 71.632C158.827 72.0907 158.651 72.7253 158.651 73.536H162.571C162.592 73.3973 162.608 73.2693 162.619 73.152C162.629 73.024 162.635 72.9067 162.635 72.8C162.635 72.1387 162.448 71.664 162.075 71.376C161.712 71.0773 161.28 70.928 160.779 70.928ZM171.517 78.08C171.08 78.08 170.717 77.9733 170.429 77.76C170.141 77.536 169.971 77.2427 169.917 76.88C169.341 77.392 168.835 77.7333 168.397 77.904C167.96 78.0747 167.549 78.16 167.165 78.16C166.483 78.16 165.976 77.9413 165.645 77.504C165.325 77.056 165.165 76.5227 165.165 75.904C165.165 75.488 165.24 75.1147 165.389 74.784C165.549 74.4533 165.811 74.192 166.173 74C166.536 73.7973 167.032 73.696 167.661 73.696C167.949 73.696 168.285 73.7173 168.669 73.76C169.053 73.792 169.427 73.84 169.789 73.904V72.752C169.789 72.0587 169.656 71.584 169.389 71.328C169.123 71.0613 168.707 70.928 168.141 70.928C167.757 70.928 167.379 70.9813 167.005 71.088C166.632 71.184 166.243 71.328 165.837 71.52L165.501 70.736C165.939 70.512 166.371 70.3413 166.797 70.224C167.235 70.1067 167.683 70.048 168.141 70.048C168.856 70.048 169.395 70.1653 169.757 70.4C170.131 70.624 170.387 70.928 170.525 71.312C170.664 71.696 170.733 72.1227 170.733 72.592V76.208C170.733 76.5067 170.781 76.7467 170.877 76.928C170.984 77.1093 171.187 77.2 171.485 77.2H171.677V78.08H171.517ZM166.157 75.904C166.157 76.3307 166.253 76.672 166.445 76.928C166.648 77.184 166.936 77.312 167.309 77.312C167.608 77.312 167.955 77.216 168.349 77.024C168.755 76.832 169.235 76.4853 169.789 75.984V74.752C169.416 74.688 169.032 74.64 168.637 74.608C168.253 74.5653 167.933 74.544 167.677 74.544C167.144 74.544 166.755 74.656 166.509 74.88C166.275 75.0933 166.157 75.4347 166.157 75.904ZM178.611 78L176.227 74.144C175.993 74.3787 175.747 74.6187 175.491 74.864C175.235 75.0987 174.963 75.3387 174.675 75.584V78H173.715V66.16H174.675V74.48C175.433 73.7867 176.11 73.0987 176.707 72.416C177.305 71.7227 177.854 70.9867 178.355 70.208H179.443C179.049 70.8373 178.654 71.4133 178.259 71.936C177.865 72.448 177.417 72.9707 176.915 73.504L179.779 78H178.611ZM182.662 67.984H181.51V66.816H182.662V67.984ZM182.566 78H181.606V70.208H182.566V78ZM189.302 70.96C188.971 70.96 188.593 71.04 188.166 71.2C187.739 71.36 187.206 71.7013 186.566 72.224V78H185.606V70.208H186.518V71.328C187.137 70.816 187.681 70.4747 188.15 70.304C188.619 70.1333 189.057 70.048 189.462 70.048C190.177 70.048 190.721 70.2667 191.094 70.704C191.467 71.1413 191.654 71.7707 191.654 72.592V78H190.694V72.768C190.694 72.1387 190.577 71.68 190.342 71.392C190.118 71.104 189.771 70.96 189.302 70.96ZM200.686 79.12C200.686 79.856 200.382 80.448 199.774 80.896C199.166 81.344 198.339 81.568 197.294 81.568C196.739 81.568 196.174 81.488 195.598 81.328C195.022 81.168 194.467 80.912 193.934 80.56L194.318 79.824C194.862 80.1653 195.379 80.3947 195.87 80.512C196.371 80.64 196.851 80.704 197.31 80.704C198.067 80.704 198.654 80.5653 199.07 80.288C199.496 80.0213 199.71 79.6587 199.71 79.2C199.71 78.8693 199.592 78.6133 199.358 78.432C199.134 78.2507 198.76 78.16 198.238 78.16H196.462C195.811 78.16 195.342 78.0107 195.054 77.712C194.766 77.4027 194.622 77.0667 194.622 76.704C194.622 76.1707 194.872 75.6213 195.374 75.056C195 74.8427 194.702 74.544 194.478 74.16C194.254 73.7653 194.142 73.296 194.142 72.752C194.142 72.144 194.264 71.6427 194.51 71.248C194.766 70.8427 195.107 70.544 195.534 70.352C195.971 70.1493 196.451 70.048 196.974 70.048H197.246C197.587 70.048 197.896 70.1013 198.174 70.208H200.958V71.088L199.166 70.88C199.422 71.0827 199.635 71.3387 199.806 71.648C199.976 71.9467 200.062 72.3147 200.062 72.752C200.062 73.3387 199.934 73.8347 199.678 74.24C199.422 74.6347 199.08 74.9387 198.654 75.152C198.238 75.3547 197.768 75.456 197.246 75.456H196.974C196.643 75.456 196.344 75.4187 196.078 75.344C195.886 75.5573 195.747 75.7653 195.662 75.968C195.576 76.16 195.534 76.3413 195.534 76.512C195.534 76.9813 195.87 77.216 196.542 77.216H198.222C199.011 77.216 199.619 77.376 200.046 77.696C200.472 78.016 200.686 78.4907 200.686 79.12ZM197.246 74.576C197.726 74.576 198.147 74.4267 198.51 74.128C198.872 73.8293 199.054 73.3707 199.054 72.752C199.054 72.1333 198.872 71.6747 198.51 71.376C198.147 71.0773 197.726 70.928 197.246 70.928H196.974C196.483 70.928 196.056 71.0773 195.694 71.376C195.331 71.6747 195.15 72.1333 195.15 72.752C195.15 73.3707 195.331 73.8293 195.694 74.128C196.056 74.4267 196.483 74.576 196.974 74.576H197.246ZM206.528 76.32V66.16H207.488V76.208C207.488 76.5707 207.536 76.8267 207.632 76.976C207.738 77.1253 207.941 77.2 208.24 77.2H208.496V78.08H208.192C207.616 78.08 207.194 77.936 206.928 77.648C206.661 77.36 206.528 76.9173 206.528 76.32ZM216.174 78.08C215.736 78.08 215.374 77.9733 215.086 77.76C214.798 77.536 214.627 77.2427 214.574 76.88C213.998 77.392 213.491 77.7333 213.054 77.904C212.616 78.0747 212.206 78.16 211.822 78.16C211.139 78.16 210.632 77.9413 210.302 77.504C209.982 77.056 209.822 76.5227 209.822 75.904C209.822 75.488 209.896 75.1147 210.046 74.784C210.206 74.4533 210.467 74.192 210.83 74C211.192 73.7973 211.688 73.696 212.318 73.696C212.606 73.696 212.942 73.7173 213.326 73.76C213.71 73.792 214.083 73.84 214.446 73.904V72.752C214.446 72.0587 214.312 71.584 214.046 71.328C213.779 71.0613 213.363 70.928 212.798 70.928C212.414 70.928 212.035 70.9813 211.662 71.088C211.288 71.184 210.899 71.328 210.494 71.52L210.158 70.736C210.595 70.512 211.027 70.3413 211.454 70.224C211.891 70.1067 212.339 70.048 212.798 70.048C213.512 70.048 214.051 70.1653 214.414 70.4C214.787 70.624 215.043 70.928 215.182 71.312C215.32 71.696 215.39 72.1227 215.39 72.592V76.208C215.39 76.5067 215.438 76.7467 215.534 76.928C215.64 77.1093 215.843 77.2 216.142 77.2H216.334V78.08H216.174ZM210.814 75.904C210.814 76.3307 210.91 76.672 211.102 76.928C211.304 77.184 211.592 77.312 211.966 77.312C212.264 77.312 212.611 77.216 213.006 77.024C213.411 76.832 213.891 76.4853 214.446 75.984V74.752C214.072 74.688 213.688 74.64 213.294 74.608C212.91 74.5653 212.59 74.544 212.334 74.544C211.8 74.544 211.411 74.656 211.166 74.88C210.931 75.0933 210.814 75.4347 210.814 75.904ZM223.268 78V76.88C222.67 77.3813 222.142 77.7227 221.684 77.904C221.236 78.0747 220.809 78.16 220.404 78.16C219.721 78.16 219.198 77.9413 218.836 77.504C218.473 77.056 218.292 76.4267 218.292 75.616V70.208H219.252V75.44C219.252 76.0587 219.358 76.5173 219.572 76.816C219.785 77.104 220.116 77.248 220.564 77.248C220.884 77.248 221.246 77.168 221.652 77.008C222.068 76.8373 222.59 76.496 223.22 75.984V70.208H224.18V78H223.268ZM230.911 70.96C230.581 70.96 230.202 71.04 229.775 71.2C229.349 71.36 228.815 71.7013 228.175 72.224V78H227.215V70.208H228.127V71.328C228.746 70.816 229.29 70.4747 229.759 70.304C230.229 70.1333 230.666 70.048 231.071 70.048C231.786 70.048 232.33 70.2667 232.703 70.704C233.077 71.1413 233.263 71.7707 233.263 72.592V78H232.303V72.768C232.303 72.1387 232.186 71.68 231.951 71.392C231.727 71.104 231.381 70.96 230.911 70.96ZM236.839 73.616V74.576C236.839 75.4507 237.004 76.1227 237.335 76.592C237.666 77.0507 238.194 77.28 238.919 77.28C239.26 77.28 239.607 77.2373 239.959 77.152C240.311 77.056 240.668 76.9227 241.031 76.752L241.351 77.536C240.54 77.952 239.703 78.16 238.839 78.16C237.847 78.16 237.095 77.8453 236.583 77.216C236.082 76.5867 235.831 75.7067 235.831 74.576V73.616C235.831 72.496 236.082 71.6213 236.583 70.992C237.095 70.3627 237.847 70.048 238.839 70.048C239.212 70.048 239.607 70.096 240.023 70.192C240.439 70.288 240.834 70.432 241.207 70.624L240.887 71.424C240.567 71.2747 240.242 71.1573 239.911 71.072C239.58 70.976 239.25 70.928 238.919 70.928C238.194 70.928 237.666 71.1573 237.335 71.616C237.004 72.0747 236.839 72.7413 236.839 73.616ZM247.146 70.96C246.815 70.96 246.436 71.04 246.01 71.2C245.583 71.36 245.05 71.7013 244.41 72.224V78H243.45V66.16H244.41V71.28C245.007 70.7787 245.535 70.448 245.994 70.288C246.463 70.128 246.9 70.048 247.306 70.048C248.02 70.048 248.564 70.2667 248.938 70.704C249.311 71.1413 249.498 71.7707 249.498 72.592V78H248.538V72.768C248.538 72.1387 248.42 71.68 248.186 71.392C247.962 71.104 247.615 70.96 247.146 70.96ZM55.0364 92.616V93.576C55.0364 94.7067 54.7537 95.5867 54.1884 96.216C53.623 96.8453 52.8284 97.16 51.8044 97.16C50.7697 97.16 49.9697 96.8453 49.4044 96.216C48.8497 95.5867 48.5724 94.7067 48.5724 93.576V92.616C48.5724 91.528 48.8497 90.664 49.4044 90.024C49.9697 89.3733 50.7697 89.048 51.8044 89.048C52.839 89.048 53.6337 89.3733 54.1884 90.024C54.7537 90.664 55.0364 91.528 55.0364 92.616ZM54.0284 92.616C54.0284 91.7627 53.8364 91.1013 53.4524 90.632C53.0684 90.1627 52.519 89.928 51.8044 89.928C51.0897 89.928 50.5404 90.1627 50.1564 90.632C49.7724 91.1013 49.5804 91.7627 49.5804 92.616V93.576C49.5804 94.4613 49.7724 95.1333 50.1564 95.592C50.5404 96.0507 51.0897 96.28 51.8044 96.28C52.519 96.28 53.0684 96.0507 53.4524 95.592C53.8364 95.1333 54.0284 94.4613 54.0284 93.576V92.616ZM61.341 89.96C61.0103 89.96 60.6317 90.04 60.205 90.2C59.7783 90.36 59.245 90.7013 58.605 91.224V97H57.645V89.208H58.557V90.328C59.1757 89.816 59.7197 89.4747 60.189 89.304C60.6583 89.1333 61.0957 89.048 61.501 89.048C62.2157 89.048 62.7597 89.2667 63.133 89.704C63.5063 90.1413 63.693 90.7707 63.693 91.592V97H62.733V91.768C62.733 91.1387 62.6157 90.68 62.381 90.392C62.157 90.104 61.8103 89.96 61.341 89.96ZM74.3321 96.696C73.7455 97.0053 73.1535 97.16 72.5561 97.16C72.0228 97.16 71.6068 97.0533 71.3081 96.84C71.0095 96.616 70.8015 96.3227 70.6841 95.96C70.5668 95.5973 70.5081 95.2133 70.5081 94.808V90.056H69.0841V89.208H70.5081V86.936H71.4681V89.208H74.1081V90.056H71.4681V94.728C71.4681 95.3253 71.5588 95.7413 71.7401 95.976C71.9321 96.2 72.2415 96.312 72.6681 96.312C73.0735 96.312 73.5161 96.184 73.9961 95.928L74.3321 96.696ZM79.9504 89.96C79.6197 89.96 79.241 90.04 78.8144 90.2C78.3877 90.36 77.8544 90.7013 77.2144 91.224V97H76.2544V85.16H77.2144V90.28C77.8117 89.7787 78.3397 89.448 78.7984 89.288C79.2677 89.128 79.705 89.048 80.1104 89.048C80.825 89.048 81.369 89.2667 81.7424 89.704C82.1157 90.1413 82.3024 90.7707 82.3024 91.592V97H81.3424V91.768C81.3424 91.1387 81.225 90.68 80.9904 90.392C80.7664 90.104 80.4197 89.96 79.9504 89.96ZM90.742 96.536C90.3047 96.76 89.846 96.92 89.366 97.016C88.8967 97.112 88.47 97.16 88.086 97.16C86.998 97.16 86.1873 96.8453 85.654 96.216C85.1313 95.5867 84.87 94.7067 84.87 93.576V92.616C84.87 91.5387 85.1367 90.6747 85.67 90.024C86.2033 89.3733 86.9713 89.048 87.974 89.048C88.7633 89.048 89.4247 89.2827 89.958 89.752C90.502 90.2213 90.774 90.9307 90.774 91.88C90.774 92.3173 90.71 92.8187 90.582 93.384H85.846V93.576C85.846 94.4507 86.022 95.1227 86.374 95.592C86.726 96.0507 87.2967 96.28 88.086 96.28C88.406 96.28 88.774 96.2373 89.19 96.152C89.6167 96.0667 90.0273 95.9333 90.422 95.752L90.742 96.536ZM87.974 89.928C87.2593 89.928 86.726 90.1627 86.374 90.632C86.022 91.0907 85.846 91.7253 85.846 92.536H89.766C89.7873 92.3973 89.8033 92.2693 89.814 92.152C89.8247 92.024 89.83 91.9067 89.83 91.8C89.83 91.1387 89.6433 90.664 89.27 90.376C88.9073 90.0773 88.4753 89.928 87.974 89.928ZM95.5361 87.064V86.12H103.104V87.064H99.8401V97H98.8001V87.064H95.5361ZM107.58 90.008C107.132 90.008 106.684 90.0933 106.236 90.264C105.788 90.4347 105.265 90.8133 104.668 91.4V97H103.708V89.208H104.62V90.504C105.164 89.9387 105.67 89.5547 106.14 89.352C106.609 89.1493 107.089 89.048 107.58 89.048V90.008ZM115.396 92.616V93.576C115.396 94.7067 115.113 95.5867 114.548 96.216C113.982 96.8453 113.188 97.16 112.164 97.16C111.129 97.16 110.329 96.8453 109.764 96.216C109.209 95.5867 108.932 94.7067 108.932 93.576V92.616C108.932 91.528 109.209 90.664 109.764 90.024C110.329 89.3733 111.129 89.048 112.164 89.048C113.198 89.048 113.993 89.3733 114.548 90.024C115.113 90.664 115.396 91.528 115.396 92.616ZM114.388 92.616C114.388 91.7627 114.196 91.1013 113.812 90.632C113.428 90.1627 112.878 89.928 112.164 89.928C111.449 89.928 110.9 90.1627 110.516 90.632C110.132 91.1013 109.94 91.7627 109.94 92.616V93.576C109.94 94.4613 110.132 95.1333 110.516 95.592C110.9 96.0507 111.449 96.28 112.164 96.28C112.878 96.28 113.428 96.0507 113.812 95.592C114.196 95.1333 114.388 94.4613 114.388 93.576V92.616ZM121.7 89.96C121.37 89.96 120.991 90.04 120.564 90.2C120.138 90.36 119.604 90.7013 118.964 91.224V97H118.004V89.208H118.916V90.328C119.535 89.816 120.079 89.4747 120.548 89.304C121.018 89.1333 121.455 89.048 121.86 89.048C122.575 89.048 123.119 89.2667 123.492 89.704C123.866 90.1413 124.052 90.7707 124.052 91.592V97H123.092V91.768C123.092 91.1387 122.975 90.68 122.74 90.392C122.516 90.104 122.17 89.96 121.7 89.96ZM136.82 93.592C136.82 94.68 136.548 95.5493 136.004 96.2C135.46 96.84 134.665 97.16 133.62 97.16C132.628 97.16 131.641 96.8987 130.66 96.376V85.16H131.62V90.28C132.089 89.8427 132.537 89.528 132.964 89.336C133.401 89.144 133.844 89.048 134.292 89.048C135.113 89.048 135.737 89.3627 136.164 89.992C136.601 90.6107 136.82 91.4907 136.82 92.632V93.592ZM134.1 89.96C133.758 89.96 133.401 90.0453 133.028 90.216C132.665 90.376 132.196 90.7227 131.62 91.256V95.832C132.281 96.1307 132.932 96.28 133.572 96.28C134.372 96.28 134.942 96.04 135.284 95.56C135.636 95.08 135.812 94.424 135.812 93.592V92.632C135.812 91.7147 135.673 91.0427 135.396 90.616C135.118 90.1787 134.686 89.96 134.1 89.96ZM139.473 95.32V85.16H140.433V95.208C140.433 95.5707 140.481 95.8267 140.577 95.976C140.684 96.1253 140.886 96.2 141.185 96.2H141.441V97.08H141.137C140.561 97.08 140.14 96.936 139.873 96.648C139.606 96.36 139.473 95.9173 139.473 95.32ZM149.599 92.616V93.576C149.599 94.7067 149.316 95.5867 148.751 96.216C148.186 96.8453 147.391 97.16 146.367 97.16C145.332 97.16 144.532 96.8453 143.967 96.216C143.412 95.5867 143.135 94.7067 143.135 93.576V92.616C143.135 91.528 143.412 90.664 143.967 90.024C144.532 89.3733 145.332 89.048 146.367 89.048C147.402 89.048 148.196 89.3733 148.751 90.024C149.316 90.664 149.599 91.528 149.599 92.616ZM148.591 92.616C148.591 91.7627 148.399 91.1013 148.015 90.632C147.631 90.1627 147.082 89.928 146.367 89.928C145.652 89.928 145.103 90.1627 144.719 90.632C144.335 91.1013 144.143 91.7627 144.143 92.616V93.576C144.143 94.4613 144.335 95.1333 144.719 95.592C145.103 96.0507 145.652 96.28 146.367 96.28C147.082 96.28 147.631 96.0507 148.015 95.592C148.399 95.1333 148.591 94.4613 148.591 93.576V92.616ZM152.816 92.616V93.576C152.816 94.4507 152.981 95.1227 153.312 95.592C153.642 96.0507 154.17 96.28 154.896 96.28C155.237 96.28 155.584 96.2373 155.936 96.152C156.288 96.056 156.645 95.9227 157.008 95.752L157.328 96.536C156.517 96.952 155.68 97.16 154.816 97.16C153.824 97.16 153.072 96.8453 152.56 96.216C152.058 95.5867 151.808 94.7067 151.808 93.576V92.616C151.808 91.496 152.058 90.6213 152.56 89.992C153.072 89.3627 153.824 89.048 154.816 89.048C155.189 89.048 155.584 89.096 156 89.192C156.416 89.288 156.81 89.432 157.184 89.624L156.864 90.424C156.544 90.2747 156.218 90.1573 155.888 90.072C155.557 89.976 155.226 89.928 154.896 89.928C154.17 89.928 153.642 90.1573 153.312 90.616C152.981 91.0747 152.816 91.7413 152.816 92.616ZM164.322 97L161.938 93.144C161.704 93.3787 161.458 93.6187 161.202 93.864C160.946 94.0987 160.674 94.3387 160.386 94.584V97H159.426V85.16H160.386V93.48C161.144 92.7867 161.821 92.0987 162.418 91.416C163.016 90.7227 163.565 89.9867 164.066 89.208H165.154C164.76 89.8373 164.365 90.4133 163.97 90.936C163.576 91.448 163.128 91.9707 162.626 92.504L165.49 97H164.322ZM167.769 92.616V93.576C167.769 94.4507 167.934 95.1227 168.265 95.592C168.595 96.0507 169.123 96.28 169.849 96.28C170.19 96.28 170.537 96.2373 170.889 96.152C171.241 96.056 171.598 95.9227 171.961 95.752L172.281 96.536C171.47 96.952 170.633 97.16 169.769 97.16C168.777 97.16 168.025 96.8453 167.513 96.216C167.011 95.5867 166.761 94.7067 166.761 93.576V92.616C166.761 91.496 167.011 90.6213 167.513 89.992C168.025 89.3627 168.777 89.048 169.769 89.048C170.142 89.048 170.537 89.096 170.953 89.192C171.369 89.288 171.763 89.432 172.137 89.624L171.817 90.424C171.497 90.2747 171.171 90.1573 170.841 90.072C170.51 89.976 170.179 89.928 169.849 89.928C169.123 89.928 168.595 90.1573 168.265 90.616C167.934 91.0747 167.769 91.7413 167.769 92.616ZM178.075 89.96C177.745 89.96 177.366 90.04 176.939 90.2C176.513 90.36 175.979 90.7013 175.339 91.224V97H174.379V85.16H175.339V90.28C175.937 89.7787 176.465 89.448 176.923 89.288C177.393 89.128 177.83 89.048 178.235 89.048C178.95 89.048 179.494 89.2667 179.867 89.704C180.241 90.1413 180.427 90.7707 180.427 91.592V97H179.467V91.768C179.467 91.1387 179.35 90.68 179.115 90.392C178.891 90.104 178.545 89.96 178.075 89.96ZM188.947 97.08C188.51 97.08 188.147 96.9733 187.859 96.76C187.571 96.536 187.4 96.2427 187.347 95.88C186.771 96.392 186.264 96.7333 185.827 96.904C185.39 97.0747 184.979 97.16 184.595 97.16C183.912 97.16 183.406 96.9413 183.075 96.504C182.755 96.056 182.595 95.5227 182.595 94.904C182.595 94.488 182.67 94.1147 182.819 93.784C182.979 93.4533 183.24 93.192 183.603 93C183.966 92.7973 184.462 92.696 185.091 92.696C185.379 92.696 185.715 92.7173 186.099 92.76C186.483 92.792 186.856 92.84 187.219 92.904V91.752C187.219 91.0587 187.086 90.584 186.819 90.328C186.552 90.0613 186.136 89.928 185.571 89.928C185.187 89.928 184.808 89.9813 184.435 90.088C184.062 90.184 183.672 90.328 183.267 90.52L182.931 89.736C183.368 89.512 183.8 89.3413 184.227 89.224C184.664 89.1067 185.112 89.048 185.571 89.048C186.286 89.048 186.824 89.1653 187.187 89.4C187.56 89.624 187.816 89.928 187.955 90.312C188.094 90.696 188.163 91.1227 188.163 91.592V95.208C188.163 95.5067 188.211 95.7467 188.307 95.928C188.414 96.1093 188.616 96.2 188.915 96.2H189.107V97.08H188.947ZM183.587 94.904C183.587 95.3307 183.683 95.672 183.875 95.928C184.078 96.184 184.366 96.312 184.739 96.312C185.038 96.312 185.384 96.216 185.779 96.024C186.184 95.832 186.664 95.4853 187.219 94.984V93.752C186.846 93.688 186.462 93.64 186.067 93.608C185.683 93.5653 185.363 93.544 185.107 93.544C184.574 93.544 184.184 93.656 183.939 93.88C183.704 94.0933 183.587 94.4347 183.587 94.904ZM192.201 86.984H191.049V85.816H192.201V86.984ZM192.105 97H191.145V89.208H192.105V97ZM198.841 89.96C198.51 89.96 198.132 90.04 197.705 90.2C197.278 90.36 196.745 90.7013 196.105 91.224V97H195.145V89.208H196.057V90.328C196.676 89.816 197.22 89.4747 197.689 89.304C198.158 89.1333 198.596 89.048 199.001 89.048C199.716 89.048 200.26 89.2667 200.633 89.704C201.006 90.1413 201.193 90.7707 201.193 91.592V97H200.233V91.768C200.233 91.1387 200.116 90.68 199.881 90.392C199.657 90.104 199.31 89.96 198.841 89.96ZM204.657 97H203.505V95.832H204.657V97Z" fill="white"/>
</svg>
