<svg width="532" height="88" viewBox="0 0 532 88" fill="none" xmlns="http://www.w3.org/2000/svg">
<path d="M39.53 18.228V19.408C38.1927 19.4473 37.17 19.644 36.462 19.998C35.7933 20.352 35.341 20.9223 35.105 21.709C34.869 22.4957 34.751 23.6167 34.751 25.072V60.295C34.515 60.295 34.279 60.295 34.043 60.295C33.8463 60.295 33.63 60.295 33.394 60.295L8.614 22.004V53.156C8.614 54.572 8.732 55.693 8.968 56.519C9.24333 57.3057 9.75467 57.876 10.502 58.23C11.2887 58.5447 12.449 58.7413 13.983 58.82V60C13.275 59.9213 12.3507 59.882 11.21 59.882C10.0693 59.8427 8.98767 59.823 7.965 59.823C6.98167 59.823 5.97867 59.8427 4.956 59.882C3.97267 59.882 3.14667 59.9213 2.478 60V58.82C3.81533 58.7413 4.81833 58.5447 5.487 58.23C6.195 57.876 6.667 57.3057 6.903 56.519C7.139 55.693 7.257 54.572 7.257 53.156V24.482C7.257 23.0267 7.139 21.9647 6.903 21.296C6.667 20.588 6.195 20.116 5.487 19.88C4.81833 19.6047 3.81533 19.4473 2.478 19.408V18.228C3.14667 18.2673 3.97267 18.3067 4.956 18.346C5.97867 18.3853 6.98167 18.405 7.965 18.405C8.83033 18.405 9.65633 18.3853 10.443 18.346C11.2297 18.3067 11.9377 18.2673 12.567 18.228L33.394 50.324V25.072C33.394 23.6167 33.2563 22.4957 32.981 21.709C32.745 20.9223 32.2337 20.352 31.447 19.998C30.6997 19.644 29.559 19.4473 28.025 19.408V18.228C28.733 18.2673 29.6573 18.3067 30.798 18.346C31.978 18.3853 33.0597 18.405 34.043 18.405C35.0657 18.405 36.0687 18.3853 37.052 18.346C38.0747 18.3067 38.9007 18.2673 39.53 18.228ZM56.6681 28.789C60.1295 28.789 62.8238 29.851 64.7511 31.975C66.7178 34.0597 67.7011 37.3243 67.7011 41.769H46.8741L46.8151 40.648H62.0371C62.1158 38.7207 61.9585 36.9507 61.5651 35.338C61.1718 33.686 60.5425 32.3683 59.6771 31.385C58.8511 30.4017 57.7695 29.91 56.4321 29.91C54.6228 29.91 53.0101 30.8147 51.5941 32.624C50.2175 34.4333 49.3915 37.3047 49.1161 41.238L49.2931 41.474C49.2145 42.064 49.1555 42.713 49.1161 43.421C49.0768 44.129 49.0571 44.837 49.0571 45.545C49.0571 48.2197 49.4898 50.5207 50.3551 52.448C51.2205 54.3753 52.3415 55.8503 53.7181 56.873C55.1341 57.8563 56.5895 58.348 58.0841 58.348C59.2641 58.348 60.3851 58.171 61.4471 57.817C62.5091 57.4237 63.4925 56.7943 64.3971 55.929C65.3018 55.0637 66.0885 53.9033 66.7571 52.448L67.9371 52.92C67.5045 54.218 66.7965 55.4767 65.8131 56.696C64.8298 57.9153 63.5908 58.9183 62.0961 59.705C60.6015 60.4523 58.8708 60.826 56.9041 60.826C54.0721 60.826 51.6335 60.177 49.5881 58.879C47.5821 57.581 46.0285 55.7913 44.9271 53.51C43.8651 51.1893 43.3341 48.5343 43.3341 45.545C43.3341 42.0837 43.8848 39.114 44.9861 36.636C46.0875 34.1187 47.6411 32.1913 49.6471 30.854C51.6531 29.4773 53.9935 28.789 56.6681 28.789ZM80.5548 60.413C78.9422 60.413 77.5458 60.118 76.3658 59.528C75.1858 58.8987 74.2812 58.0333 73.6518 56.932C73.0618 55.8307 72.7668 54.5523 72.7668 53.097C72.7668 51.3663 73.1602 49.9503 73.9468 48.849C74.7728 47.7477 75.8152 46.8627 77.0738 46.194C78.3325 45.5253 79.6502 44.9747 81.0268 44.542C82.4428 44.07 83.7802 43.6373 85.0388 43.244C86.2975 42.8113 87.3202 42.3197 88.1068 41.769C88.9328 41.2183 89.3458 40.4907 89.3458 39.586V35.928C89.3458 34.276 89.0902 33.0173 88.5788 32.152C88.1068 31.2867 87.4578 30.7163 86.6318 30.441C85.8058 30.1263 84.8815 29.969 83.8588 29.969C82.8755 29.969 81.8135 30.1067 80.6728 30.382C79.5715 30.6573 78.6865 31.2277 78.0178 32.093C78.7652 32.2503 79.4142 32.6437 79.9648 33.273C80.5155 33.9023 80.7908 34.7087 80.7908 35.692C80.7908 36.6753 80.4762 37.462 79.8468 38.052C79.2175 38.6027 78.4112 38.878 77.4278 38.878C76.2872 38.878 75.4415 38.524 74.8908 37.816C74.3795 37.0687 74.1238 36.2427 74.1238 35.338C74.1238 34.3153 74.3795 33.4893 74.8908 32.86C75.4022 32.2307 76.0512 31.6407 76.8378 31.09C77.7425 30.4607 78.9028 29.9297 80.3188 29.497C81.7742 29.025 83.4065 28.789 85.2158 28.789C86.8285 28.789 88.2052 28.9857 89.3458 29.379C90.4865 29.733 91.4305 30.264 92.1778 30.972C93.2005 31.916 93.8692 33.0763 94.1838 34.453C94.4985 35.7903 94.6558 37.403 94.6558 39.291V55.693C94.6558 56.6763 94.7935 57.3843 95.0688 57.817C95.3835 58.2497 95.8555 58.466 96.4848 58.466C96.9175 58.466 97.3305 58.3677 97.7238 58.171C98.1172 57.9743 98.5892 57.6597 99.1398 57.227L99.7888 58.23C98.9628 58.8593 98.1762 59.3903 97.4288 59.823C96.6815 60.2163 95.6785 60.413 94.4198 60.413C93.2792 60.413 92.3352 60.2163 91.5878 59.823C90.8405 59.4297 90.2702 58.8593 89.8768 58.112C89.5228 57.3253 89.3458 56.342 89.3458 55.162C88.2838 56.932 87.0055 58.2497 85.5108 59.115C84.0555 59.9803 82.4035 60.413 80.5548 60.413ZM82.6788 58.053C83.9768 58.053 85.1765 57.6793 86.2778 56.932C87.4185 56.1847 88.4412 55.0637 89.3458 53.569V42.005C88.8738 42.6737 88.1855 43.244 87.2808 43.716C86.3762 44.1487 85.3928 44.601 84.3308 45.073C83.2688 45.5057 82.2462 46.0367 81.2628 46.666C80.3188 47.256 79.5322 48.0427 78.9028 49.026C78.2735 50.0093 77.9588 51.2877 77.9588 52.861C77.9588 54.4343 78.3718 55.693 79.1978 56.637C80.0632 57.581 81.2235 58.053 82.6788 58.053ZM119.911 28.789C120.973 28.789 121.897 29.0053 122.684 29.438C123.51 29.8707 124.139 30.441 124.572 31.149C125.044 31.8177 125.28 32.5847 125.28 33.45C125.28 34.4333 124.965 35.2987 124.336 36.046C123.746 36.7933 122.939 37.167 121.917 37.167C121.091 37.167 120.363 36.9113 119.734 36.4C119.104 35.8493 118.79 35.0823 118.79 34.099C118.79 33.3517 118.986 32.7223 119.38 32.211C119.812 31.6603 120.284 31.2277 120.796 30.913C120.52 30.5197 120.107 30.323 119.557 30.323C118.337 30.323 117.216 30.6967 116.194 31.444C115.171 32.152 114.306 33.0763 113.598 34.217C112.89 35.3577 112.339 36.577 111.946 37.875C111.552 39.1337 111.356 40.3137 111.356 41.415V53.923C111.356 55.8503 111.906 57.1483 113.008 57.817C114.148 58.4463 115.682 58.761 117.61 58.761V60C116.705 59.9607 115.427 59.9213 113.775 59.882C112.123 59.8033 110.372 59.764 108.524 59.764C107.186 59.764 105.849 59.8033 104.512 59.882C103.214 59.9213 102.23 59.9607 101.562 60V58.761C103.174 58.761 104.315 58.466 104.984 57.876C105.692 57.286 106.046 56.165 106.046 54.513V36.046C106.046 34.276 105.731 32.978 105.102 32.152C104.472 31.2867 103.292 30.854 101.562 30.854V29.615C102.82 29.733 104.04 29.792 105.22 29.792C106.36 29.792 107.442 29.733 108.465 29.615C109.527 29.4577 110.49 29.2413 111.356 28.966V36.341C111.788 35.2003 112.398 34.0597 113.185 32.919C114.011 31.739 114.994 30.7557 116.135 29.969C117.275 29.1823 118.534 28.789 119.911 28.789Z" fill="white"/>
<path d="M153.37 42.418V45.84H132.071V42.418H153.37ZM176.027 18.228C183.068 18.228 188.299 19.998 191.721 23.538C195.143 27.0387 196.854 32.0733 196.854 38.642C196.854 42.9293 196.009 46.6857 194.317 49.911C192.665 53.097 190.246 55.575 187.06 57.345C183.874 59.115 180.02 60 175.496 60C174.906 60 174.12 59.9803 173.136 59.941C172.153 59.9017 171.13 59.882 170.068 59.882C169.046 59.8427 168.102 59.823 167.236 59.823C165.86 59.823 164.503 59.8427 163.165 59.882C161.828 59.882 160.746 59.9213 159.92 60V58.82C161.258 58.7413 162.261 58.584 162.929 58.348C163.637 58.112 164.109 57.64 164.345 56.932C164.581 56.224 164.699 55.162 164.699 53.746V24.482C164.699 23.0267 164.581 21.9647 164.345 21.296C164.109 20.588 163.637 20.116 162.929 19.88C162.261 19.6047 161.258 19.4473 159.92 19.408V18.228C160.746 18.2673 161.828 18.3263 163.165 18.405C164.503 18.4443 165.82 18.4443 167.118 18.405C168.495 18.3657 170.049 18.3263 171.779 18.287C173.51 18.2477 174.926 18.228 176.027 18.228ZM174.552 19.29C172.743 19.29 171.563 19.6243 171.012 20.293C170.462 20.9617 170.186 22.3187 170.186 24.364V53.864C170.186 55.9093 170.462 57.2663 171.012 57.935C171.602 58.6037 172.802 58.938 174.611 58.938C178.899 58.938 182.222 58.171 184.582 56.637C186.942 55.0637 188.594 52.7823 189.538 49.793C190.482 46.8037 190.954 43.1653 190.954 38.878C190.954 34.4727 190.423 30.8343 189.361 27.963C188.339 25.0523 186.628 22.889 184.228 21.473C181.868 20.0177 178.643 19.29 174.552 19.29ZM209.88 60.413C208.267 60.413 206.871 60.118 205.691 59.528C204.511 58.8987 203.606 58.0333 202.977 56.932C202.387 55.8307 202.092 54.5523 202.092 53.097C202.092 51.3663 202.485 49.9503 203.272 48.849C204.098 47.7477 205.14 46.8627 206.399 46.194C207.658 45.5253 208.975 44.9747 210.352 44.542C211.768 44.07 213.105 43.6373 214.364 43.244C215.623 42.8113 216.645 42.3197 217.432 41.769C218.258 41.2183 218.671 40.4907 218.671 39.586V35.928C218.671 34.276 218.415 33.0173 217.904 32.152C217.432 31.2867 216.783 30.7163 215.957 30.441C215.131 30.1263 214.207 29.969 213.184 29.969C212.201 29.969 211.139 30.1067 209.998 30.382C208.897 30.6573 208.012 31.2277 207.343 32.093C208.09 32.2503 208.739 32.6437 209.29 33.273C209.841 33.9023 210.116 34.7087 210.116 35.692C210.116 36.6753 209.801 37.462 209.172 38.052C208.543 38.6027 207.736 38.878 206.753 38.878C205.612 38.878 204.767 38.524 204.216 37.816C203.705 37.0687 203.449 36.2427 203.449 35.338C203.449 34.3153 203.705 33.4893 204.216 32.86C204.727 32.2307 205.376 31.6407 206.163 31.09C207.068 30.4607 208.228 29.9297 209.644 29.497C211.099 29.025 212.732 28.789 214.541 28.789C216.154 28.789 217.53 28.9857 218.671 29.379C219.812 29.733 220.756 30.264 221.503 30.972C222.526 31.916 223.194 33.0763 223.509 34.453C223.824 35.7903 223.981 37.403 223.981 39.291V55.693C223.981 56.6763 224.119 57.3843 224.394 57.817C224.709 58.2497 225.181 58.466 225.81 58.466C226.243 58.466 226.656 58.3677 227.049 58.171C227.442 57.9743 227.914 57.6597 228.465 57.227L229.114 58.23C228.288 58.8593 227.501 59.3903 226.754 59.823C226.007 60.2163 225.004 60.413 223.745 60.413C222.604 60.413 221.66 60.2163 220.913 59.823C220.166 59.4297 219.595 58.8593 219.202 58.112C218.848 57.3253 218.671 56.342 218.671 55.162C217.609 56.932 216.331 58.2497 214.836 59.115C213.381 59.9803 211.729 60.413 209.88 60.413ZM212.004 58.053C213.302 58.053 214.502 57.6793 215.603 56.932C216.744 56.1847 217.766 55.0637 218.671 53.569V42.005C218.199 42.6737 217.511 43.244 216.606 43.716C215.701 44.1487 214.718 44.601 213.656 45.073C212.594 45.5057 211.571 46.0367 210.588 46.666C209.644 47.256 208.857 48.0427 208.228 49.026C207.599 50.0093 207.284 51.2877 207.284 52.861C207.284 54.4343 207.697 55.693 208.523 56.637C209.388 57.581 210.549 58.053 212.004 58.053ZM240.268 28.966V65.192C240.268 66.8833 240.759 68.0043 241.743 68.555C242.765 69.145 244.162 69.44 245.932 69.44V70.679C245.066 70.6397 243.867 70.5807 242.333 70.502C240.799 70.4627 239.166 70.443 237.436 70.443C236.216 70.443 234.997 70.4627 233.778 70.502C232.598 70.5807 231.693 70.6397 231.064 70.679V69.44C232.48 69.44 233.483 69.1843 234.073 68.673C234.663 68.1617 234.958 67.198 234.958 65.782V36.046C234.958 34.276 234.643 32.978 234.014 32.152C233.384 31.2867 232.204 30.854 230.474 30.854V29.615C231.732 29.733 232.952 29.792 234.132 29.792C235.272 29.792 236.354 29.733 237.377 29.615C238.439 29.4577 239.402 29.2413 240.268 28.966ZM249.708 28.789C251.792 28.789 253.661 29.3593 255.313 30.5C256.965 31.6013 258.263 33.2337 259.207 35.397C260.19 37.5603 260.682 40.235 260.682 43.421C260.682 45.545 260.426 47.6493 259.915 49.734C259.403 51.7793 258.597 53.6477 257.496 55.339C256.434 56.991 255.037 58.3283 253.307 59.351C251.615 60.3343 249.57 60.826 247.171 60.826C245.322 60.826 243.709 60.3933 242.333 59.528C240.995 58.6627 240.091 57.6203 239.619 56.401L240.209 55.575C240.759 56.6763 241.546 57.6007 242.569 58.348C243.631 59.0953 244.948 59.469 246.522 59.469C248.724 59.469 250.435 58.7807 251.655 57.404C252.874 56.0273 253.72 54.1983 254.192 51.917C254.703 49.5963 254.959 47.0397 254.959 44.247C254.959 41.1003 254.703 38.524 254.192 36.518C253.68 34.512 252.913 33.0173 251.891 32.034C250.868 31.0507 249.609 30.559 248.115 30.559C246.187 30.559 244.437 31.3653 242.864 32.978C241.29 34.5513 240.287 36.9507 239.855 40.176L239.147 39.35C239.579 36.0067 240.759 33.4107 242.687 31.562C244.653 29.7133 246.994 28.789 249.708 28.789ZM274.55 28.966V65.192C274.55 66.8833 275.042 68.0043 276.025 68.555C277.048 69.145 278.444 69.44 280.214 69.44V70.679C279.349 70.6397 278.149 70.5807 276.615 70.502C275.081 70.4627 273.449 70.443 271.718 70.443C270.499 70.443 269.279 70.4627 268.06 70.502C266.88 70.5807 265.975 70.6397 265.346 70.679V69.44C266.762 69.44 267.765 69.1843 268.355 68.673C268.945 68.1617 269.24 67.198 269.24 65.782V36.046C269.24 34.276 268.925 32.978 268.296 32.152C267.667 31.2867 266.487 30.854 264.756 30.854V29.615C266.015 29.733 267.234 29.792 268.414 29.792C269.555 29.792 270.636 29.733 271.659 29.615C272.721 29.4577 273.685 29.2413 274.55 28.966ZM283.99 28.789C286.075 28.789 287.943 29.3593 289.595 30.5C291.247 31.6013 292.545 33.2337 293.489 35.397C294.472 37.5603 294.964 40.235 294.964 43.421C294.964 45.545 294.708 47.6493 294.197 49.734C293.686 51.7793 292.879 53.6477 291.778 55.339C290.716 56.991 289.32 58.3283 287.589 59.351C285.898 60.3343 283.852 60.826 281.453 60.826C279.604 60.826 277.992 60.3933 276.615 59.528C275.278 58.6627 274.373 57.6203 273.901 56.401L274.491 55.575C275.042 56.6763 275.828 57.6007 276.851 58.348C277.913 59.0953 279.231 59.469 280.804 59.469C283.007 59.469 284.718 58.7807 285.937 57.404C287.156 56.0273 288.002 54.1983 288.474 51.917C288.985 49.5963 289.241 47.0397 289.241 44.247C289.241 41.1003 288.985 38.524 288.474 36.518C287.963 34.512 287.196 33.0173 286.173 32.034C285.15 31.0507 283.892 30.559 282.397 30.559C280.47 30.559 278.719 31.3653 277.146 32.978C275.573 34.5513 274.57 36.9507 274.137 40.176L273.429 39.35C273.862 36.0067 275.042 33.4107 276.969 31.562C278.936 29.7133 281.276 28.789 283.99 28.789ZM323.11 42.418V45.84H301.811V42.418H323.11ZM329.661 18.228C330.487 18.2673 331.568 18.3067 332.906 18.346C334.243 18.3853 335.561 18.405 336.859 18.405C338.707 18.405 340.477 18.3853 342.169 18.346C343.86 18.3067 345.06 18.287 345.768 18.287C348.954 18.287 351.589 18.7393 353.674 19.644C355.798 20.5487 357.371 21.7877 358.394 23.361C359.456 24.895 359.987 26.6257 359.987 28.553C359.987 29.733 359.751 30.9917 359.279 32.329C358.807 33.6663 357.981 34.925 356.801 36.105C355.66 37.285 354.087 38.2683 352.081 39.055C350.075 39.8023 347.538 40.176 344.47 40.176H338.806V38.996H343.88C346.672 38.996 348.796 38.5633 350.252 37.698C351.746 36.7933 352.749 35.6133 353.261 34.158C353.811 32.6633 354.087 31.0113 354.087 29.202C354.087 26.0947 353.339 23.6953 351.845 22.004C350.389 20.2733 347.872 19.408 344.293 19.408C342.483 19.408 341.303 19.7423 340.753 20.411C340.202 21.0797 339.927 22.4367 339.927 24.482V53.746C339.927 55.162 340.045 56.224 340.281 56.932C340.517 57.64 340.969 58.112 341.638 58.348C342.346 58.584 343.368 58.7413 344.706 58.82V60C343.801 59.9213 342.66 59.882 341.284 59.882C339.946 59.8427 338.589 59.823 337.213 59.823C335.679 59.823 334.243 59.8427 332.906 59.882C331.568 59.882 330.487 59.9213 329.661 60V58.82C330.998 58.7413 332.001 58.584 332.67 58.348C333.378 58.112 333.85 57.64 334.086 56.932C334.322 56.224 334.44 55.162 334.44 53.746V24.482C334.44 23.0267 334.322 21.9647 334.086 21.296C333.85 20.588 333.378 20.116 332.67 19.88C332.001 19.6047 330.998 19.4473 329.661 19.408V18.228ZM339.042 39.173C341.166 39.2517 342.837 39.35 344.057 39.468C345.276 39.5467 346.259 39.6253 347.007 39.704C347.793 39.7827 348.541 39.881 349.249 39.999C351.884 40.4317 353.772 41.238 354.913 42.418C356.093 43.5587 356.958 45.3483 357.509 47.787L358.984 53.805C359.377 55.5357 359.77 56.7943 360.164 57.581C360.596 58.3283 361.245 58.6823 362.111 58.643C362.779 58.6037 363.33 58.3873 363.763 57.994C364.235 57.6007 364.726 57.0697 365.238 56.401L366.123 57.05C365.297 58.2693 364.431 59.2133 363.527 59.882C362.661 60.5113 361.422 60.826 359.81 60.826C358.354 60.826 357.076 60.3933 355.975 59.528C354.873 58.6627 354.047 56.9713 353.497 54.454L352.199 48.554C351.845 46.8627 351.432 45.4073 350.96 44.188C350.527 42.9293 349.898 41.946 349.072 41.238C348.285 40.53 347.105 40.176 345.532 40.176H339.16L339.042 39.173ZM381.488 28.789C384.95 28.789 387.644 29.851 389.571 31.975C391.538 34.0597 392.521 37.3243 392.521 41.769H371.694L371.635 40.648H386.857C386.936 38.7207 386.779 36.9507 386.385 35.338C385.992 33.686 385.363 32.3683 384.497 31.385C383.671 30.4017 382.59 29.91 381.252 29.91C379.443 29.91 377.83 30.8147 376.414 32.624C375.038 34.4333 374.212 37.3047 373.936 41.238L374.113 41.474C374.035 42.064 373.976 42.713 373.936 43.421C373.897 44.129 373.877 44.837 373.877 45.545C373.877 48.2197 374.31 50.5207 375.175 52.448C376.041 54.3753 377.162 55.8503 378.538 56.873C379.954 57.8563 381.41 58.348 382.904 58.348C384.084 58.348 385.205 58.171 386.267 57.817C387.329 57.4237 388.313 56.7943 389.217 55.929C390.122 55.0637 390.909 53.9033 391.577 52.448L392.757 52.92C392.325 54.218 391.617 55.4767 390.633 56.696C389.65 57.9153 388.411 58.9183 386.916 59.705C385.422 60.4523 383.691 60.826 381.724 60.826C378.892 60.826 376.454 60.177 374.408 58.879C372.402 57.581 370.849 55.7913 369.747 53.51C368.685 51.1893 368.154 48.5343 368.154 45.545C368.154 42.0837 368.705 39.114 369.806 36.636C370.908 34.1187 372.461 32.1913 374.467 30.854C376.473 29.4773 378.814 28.789 381.488 28.789ZM423.73 29.615V30.795C422.982 30.8737 422.294 31.208 421.665 31.798C421.035 32.388 420.445 33.4303 419.895 34.925L410.219 60.295C410.061 60.295 409.904 60.295 409.747 60.295C409.589 60.295 409.412 60.295 409.216 60.295L398.36 34.158C397.73 32.624 397.101 31.6997 396.472 31.385C395.882 31.031 395.37 30.854 394.938 30.854V29.615C395.724 29.6543 396.531 29.7133 397.357 29.792C398.222 29.8313 399.146 29.851 400.13 29.851C401.349 29.851 402.627 29.8313 403.965 29.792C405.341 29.7527 406.62 29.6937 407.8 29.615V30.854C406.816 30.854 405.931 30.9327 405.145 31.09C404.397 31.208 403.906 31.5817 403.67 32.211C403.473 32.8403 403.67 33.922 404.26 35.456L411.635 53.687L411.281 53.982L418.007 36.341C418.518 35.043 418.715 34.0203 418.597 33.273C418.518 32.4863 418.125 31.8963 417.417 31.503C416.748 31.1097 415.706 30.8737 414.29 30.795V29.615C414.998 29.6543 415.607 29.6937 416.119 29.733C416.63 29.733 417.122 29.7527 417.594 29.792C418.105 29.792 418.656 29.792 419.246 29.792C420.15 29.792 420.957 29.7723 421.665 29.733C422.412 29.6937 423.1 29.6543 423.73 29.615ZM432.359 14.865C433.382 14.865 434.267 15.2387 435.014 15.986C435.761 16.7333 436.135 17.6183 436.135 18.641C436.135 19.6637 435.761 20.5487 435.014 21.296C434.267 22.0433 433.382 22.417 432.359 22.417C431.336 22.417 430.451 22.0433 429.704 21.296C428.957 20.5487 428.583 19.6637 428.583 18.641C428.583 17.6183 428.957 16.7333 429.704 15.986C430.451 15.2387 431.336 14.865 432.359 14.865ZM435.427 28.966V54.513C435.427 56.165 435.761 57.286 436.43 57.876C437.138 58.466 438.298 58.761 439.911 58.761V60C439.242 59.9607 438.22 59.9213 436.843 59.882C435.506 59.8033 434.149 59.764 432.772 59.764C431.435 59.764 430.078 59.8033 428.701 59.882C427.324 59.9213 426.302 59.9607 425.633 60V58.761C427.246 58.761 428.386 58.466 429.055 57.876C429.763 57.286 430.117 56.165 430.117 54.513V36.046C430.117 34.276 429.802 32.978 429.173 32.152C428.544 31.2867 427.364 30.854 425.633 30.854V29.615C426.892 29.733 428.111 29.792 429.291 29.792C430.432 29.792 431.513 29.733 432.536 29.615C433.598 29.4577 434.562 29.2413 435.427 28.966ZM457.255 28.789C460.716 28.789 463.411 29.851 465.338 31.975C467.305 34.0597 468.288 37.3243 468.288 41.769H447.461L447.402 40.648H462.624C462.703 38.7207 462.545 36.9507 462.152 35.338C461.759 33.686 461.129 32.3683 460.264 31.385C459.438 30.4017 458.356 29.91 457.019 29.91C455.21 29.91 453.597 30.8147 452.181 32.624C450.804 34.4333 449.978 37.3047 449.703 41.238L449.88 41.474C449.801 42.064 449.742 42.713 449.703 43.421C449.664 44.129 449.644 44.837 449.644 45.545C449.644 48.2197 450.077 50.5207 450.942 52.448C451.807 54.3753 452.928 55.8503 454.305 56.873C455.721 57.8563 457.176 58.348 458.671 58.348C459.851 58.348 460.972 58.171 462.034 57.817C463.096 57.4237 464.079 56.7943 464.984 55.929C465.889 55.0637 466.675 53.9033 467.344 52.448L468.524 52.92C468.091 54.218 467.383 55.4767 466.4 56.696C465.417 57.9153 464.178 58.9183 462.683 59.705C461.188 60.4523 459.458 60.826 457.491 60.826C454.659 60.826 452.22 60.177 450.175 58.879C448.169 57.581 446.615 55.7913 445.514 53.51C444.452 51.1893 443.921 48.5343 443.921 45.545C443.921 42.0837 444.472 39.114 445.573 36.636C446.674 34.1187 448.228 32.1913 450.234 30.854C452.24 29.4773 454.58 28.789 457.255 28.789ZM483.684 29.615V30.854C482.701 30.854 481.836 30.9327 481.088 31.09C480.341 31.208 479.849 31.6013 479.613 32.27C479.377 32.9387 479.554 34.1187 480.144 35.81L486.28 53.392L485.867 53.333L494.54 29.379L495.72 29.851L484.923 60.295C484.766 60.295 484.609 60.295 484.451 60.295C484.294 60.295 484.117 60.295 483.92 60.295L474.244 34.158C473.615 32.5847 472.986 31.6407 472.356 31.326C471.766 31.0113 471.255 30.854 470.822 30.854V29.615C471.609 29.733 472.415 29.8313 473.241 29.91C474.107 29.9493 475.031 29.969 476.014 29.969C477.234 29.969 478.512 29.9297 479.849 29.851C481.226 29.7723 482.504 29.6937 483.684 29.615ZM516.075 29.615V30.795C515.328 30.8737 514.62 31.208 513.951 31.798C513.322 32.3487 512.752 33.391 512.24 34.925L503.685 60.295C503.528 60.295 503.371 60.295 503.213 60.295C503.056 60.295 502.879 60.295 502.682 60.295L493.183 36.164L494.54 29.379C494.776 29.379 494.993 29.379 495.189 29.379C495.425 29.379 495.661 29.379 495.897 29.379L505.101 53.746L504.629 54.1L510.47 36.341C510.903 35.0037 511.06 33.9613 510.942 33.214C510.864 32.4273 510.47 31.857 509.762 31.503C509.094 31.1097 508.051 30.8737 506.635 30.795V29.615C507.343 29.6543 507.953 29.6937 508.464 29.733C508.976 29.733 509.467 29.7527 509.939 29.792C510.451 29.792 511.001 29.792 511.591 29.792C512.496 29.792 513.302 29.7723 514.01 29.733C514.758 29.6937 515.446 29.6543 516.075 29.615Z" fill="#32CD32"/>
</svg>
